<svg width="1402" height="721" viewBox="0 0 1402 721" fill="none" xmlns="http://www.w3.org/2000/svg">
<path d="M496.9 478.558C458.189 518.058 458.189 582.101 496.9 621.601C535.612 661.101 598.375 661.101 637.087 621.601" stroke="#757575" stroke-width="4"/>
<path d="M906.25 336.29C944.962 296.79 944.962 232.747 906.25 193.247C867.539 153.747 804.775 153.747 766.063 193.247" stroke="#757575" stroke-width="4"/>
<path d="M623.98 318.765C576.569 290.834 560.324 228.973 587.697 180.596C615.071 132.218 675.696 115.642 723.107 143.573" stroke="#757575" stroke-width="4"/>
<path d="M777.468 495.235C824.88 523.166 841.124 585.027 813.751 633.404C786.378 681.782 725.753 698.358 678.341 670.427" stroke="#757575" stroke-width="4"/>
<path d="M529.91 230.97C477.029 216.512 422.674 248.534 408.505 302.492C394.335 356.45 425.717 411.913 478.598 426.371" stroke="#757575" stroke-width="4"/>
<path d="M873.234 585.574C926.115 600.032 980.47 568.011 994.64 514.053C1008.81 460.094 977.427 404.632 924.546 390.174" stroke="#757575" stroke-width="4"/>
<path d="M579.044 324.16L558.071 314.493L560.186 337.49L579.044 324.16ZM481.917 425.306C481.917 376.64 516.256 336.202 561.49 327.774L560.757 323.842C513.608 332.627 477.917 374.736 477.917 425.306L481.917 425.306ZM579.044 524.453C525.44 524.453 481.917 480.102 481.917 425.306L477.917 425.306C477.917 482.234 523.156 528.453 579.044 528.453L579.044 524.453Z" fill="#757575"/>
<path d="M824.104 491.538L845.077 501.204L842.962 478.207L824.104 491.538ZM921.231 390.391C921.231 439.057 886.892 479.495 841.658 487.923L842.391 491.855C889.54 483.07 925.231 440.961 925.231 390.391H921.231ZM824.104 291.244C877.708 291.244 921.231 335.595 921.231 390.391H925.231C925.231 333.463 879.993 287.244 824.104 287.244V291.244Z" fill="#757575"/>
<path d="M421.389 382.488C383.066 450.217 405.808 536.821 472.185 575.924" stroke="#757575" stroke-width="4"/>
<path d="M982.611 435.753C1020.93 368.025 998.192 281.421 931.815 242.318" stroke="#757575" stroke-width="4"/>
<path d="M608.21 156.748C555.329 142.29 500.974 174.311 486.805 228.269" stroke="#757575" stroke-width="4"/>
<path d="M791.545 658.949C844.426 673.407 898.78 641.386 912.95 587.428" stroke="#757575" stroke-width="4"/>
<path d="M759.396 281.743L757.289 258.556L778.106 268.472L759.396 281.743ZM764.999 264.642C780.631 220.347 763.457 169.663 722.128 145.315L724.098 141.834C767.151 167.197 784.996 219.962 768.737 266.03L764.999 264.642Z" fill="#757575"/>
<path d="M642.056 532.258L644.163 555.445L623.345 545.529L642.056 532.258ZM636.453 549.359C620.82 593.654 637.994 644.338 679.323 668.686L677.354 672.167C634.3 646.804 616.456 594.039 632.714 547.971L636.453 549.359Z" fill="#757575"/>
<path d="M105.528 492.37L111.505 470.063L89.1977 476.04L105.528 492.37ZM0.0681484 106.518L98.937 475.501L102.801 474.466L3.93185 105.482L0.0681484 106.518Z" fill="#757575"/>
<path d="M487.37 105.528L471.04 89.1977L465.063 111.505L487.37 105.528ZM100.482 3.93185L469.466 102.801L470.501 98.937L101.518 0.0681484L100.482 3.93185Z" fill="#757575"/>
<path d="M184 386L195.843 366.174L172.751 365.831L184 386ZM384 186L363.831 174.751L364.174 197.843L384 186ZM186.801 368.067C187.159 364.075 187.636 360.117 188.228 356.197L184.273 355.6C183.669 359.599 183.183 363.637 182.817 367.709L186.801 368.067ZM190.372 344.426C191.208 340.509 192.161 336.635 193.226 332.808L189.372 331.736C188.286 335.641 187.314 339.593 186.46 343.59L190.372 344.426ZM196.781 321.389C198.085 317.609 199.501 313.881 201.024 310.209L197.329 308.676C195.775 312.423 194.331 316.227 193 320.084L196.781 321.389ZM205.938 299.305C207.69 295.713 209.548 292.183 211.507 288.717L208.025 286.749C206.026 290.285 204.131 293.887 202.343 297.551L205.938 299.305ZM217.705 278.486C219.875 275.136 222.144 271.855 224.508 268.648L221.288 266.275C218.877 269.547 216.562 272.893 214.347 276.311L217.705 278.486ZM231.891 259.237C234.447 256.173 237.094 253.188 239.827 250.286L236.915 247.543C234.127 250.504 231.427 253.549 228.82 256.675L231.891 259.237ZM248.286 241.827C251.188 239.094 254.173 236.447 257.237 233.891L254.675 230.82C251.549 233.427 248.504 236.127 245.543 238.915L248.286 241.827ZM266.648 226.508C269.855 224.144 273.136 221.875 276.486 219.705L274.311 216.348C270.893 218.562 267.547 220.877 264.275 223.288L266.648 226.508ZM286.717 213.507C290.183 211.548 293.713 209.69 297.305 207.938L295.551 204.343C291.887 206.131 288.285 208.026 284.749 210.025L286.717 213.507ZM308.209 203.024C311.881 201.501 315.609 200.085 319.388 198.781L318.084 195C314.227 196.331 310.423 197.775 306.676 199.329L308.209 203.024ZM330.808 195.226C334.635 194.161 338.509 193.208 342.426 192.372L341.59 188.46C337.593 189.314 333.641 190.286 329.736 191.372L330.808 195.226ZM354.197 190.228C358.117 189.636 362.075 189.159 366.067 188.801L365.709 184.817C361.637 185.183 357.599 185.669 353.6 186.273L354.197 190.228ZM184 386L195.843 366.174L172.751 365.831L184 386ZM384 186L363.831 174.751L364.174 197.843L384 186ZM186.801 368.067C187.159 364.075 187.636 360.117 188.228 356.197L184.273 355.6C183.669 359.599 183.183 363.637 182.817 367.709L186.801 368.067ZM190.372 344.426C191.208 340.509 192.161 336.635 193.226 332.808L189.372 331.736C188.286 335.641 187.314 339.593 186.46 343.59L190.372 344.426ZM196.781 321.389C198.085 317.609 199.501 313.881 201.024 310.209L197.329 308.676C195.775 312.423 194.331 316.227 193 320.084L196.781 321.389ZM205.938 299.305C207.69 295.713 209.548 292.183 211.507 288.717L208.025 286.749C206.026 290.285 204.131 293.887 202.343 297.551L205.938 299.305ZM217.705 278.486C219.875 275.136 222.144 271.855 224.508 268.648L221.288 266.275C218.877 269.547 216.562 272.893 214.347 276.311L217.705 278.486ZM231.891 259.237C234.447 256.173 237.094 253.188 239.827 250.286L236.915 247.543C234.127 250.504 231.427 253.549 228.82 256.675L231.891 259.237ZM248.286 241.827C251.188 239.094 254.173 236.447 257.237 233.891L254.675 230.82C251.549 233.427 248.504 236.127 245.543 238.915L248.286 241.827ZM266.648 226.508C269.855 224.144 273.136 221.875 276.486 219.705L274.311 216.348C270.893 218.562 267.547 220.877 264.275 223.288L266.648 226.508ZM286.717 213.507C290.183 211.548 293.713 209.69 297.305 207.938L295.551 204.343C291.887 206.131 288.285 208.026 284.749 210.025L286.717 213.507ZM308.209 203.024C311.881 201.501 315.609 200.085 319.388 198.781L318.084 195C314.227 196.331 310.423 197.775 306.676 199.329L308.209 203.024ZM330.808 195.226C334.635 194.161 338.509 193.208 342.426 192.372L341.59 188.46C337.593 189.314 333.641 190.286 329.736 191.372L330.808 195.226ZM354.197 190.228C358.117 189.636 362.075 189.159 366.067 188.801L365.709 184.817C361.637 185.183 357.599 185.669 353.6 186.273L354.197 190.228Z" fill="#757575"/>
<path d="M1295.84 492.37L1289.87 470.063L1312.17 476.04L1295.84 492.37ZM1401.3 106.518L1302.43 475.501L1298.57 474.466L1397.44 105.482L1401.3 106.518Z" fill="#757575"/>
<path d="M914 105.528L930.33 89.1977L936.307 111.505L914 105.528ZM1300.89 3.93185L931.904 102.801L930.869 98.937L1299.85 0.0681484L1300.89 3.93185Z" fill="#757575"/>
<path d="M1193 399L1181.16 379.174L1204.25 378.831L1193 399ZM993 199L1013.17 187.751L1012.83 210.843L993 199ZM1190.2 381.067C1189.84 377.075 1189.36 373.117 1188.77 369.197L1192.73 368.6C1193.33 372.599 1193.82 376.637 1194.18 380.709L1190.2 381.067ZM1186.63 357.426C1185.79 353.509 1184.84 349.635 1183.77 345.808L1187.63 344.736C1188.71 348.641 1189.69 352.593 1190.54 356.59L1186.63 357.426ZM1180.22 334.389C1178.91 330.609 1177.5 326.881 1175.98 323.209L1179.67 321.676C1181.23 325.423 1182.67 329.227 1184 333.084L1180.22 334.389ZM1171.06 312.305C1169.31 308.713 1167.45 305.183 1165.49 301.717L1168.98 299.749C1170.97 303.285 1172.87 306.887 1174.66 310.551L1171.06 312.305ZM1159.3 291.486C1157.12 288.136 1154.86 284.855 1152.49 281.648L1155.71 279.275C1158.12 282.547 1160.44 285.893 1162.65 289.311L1159.3 291.486ZM1145.11 272.237C1142.55 269.173 1139.91 266.188 1137.17 263.286L1140.09 260.543C1142.87 263.504 1145.57 266.549 1148.18 269.675L1145.11 272.237ZM1128.71 254.827C1125.81 252.094 1122.83 249.447 1119.76 246.891L1122.33 243.82C1125.45 246.427 1128.5 249.127 1131.46 251.915L1128.71 254.827ZM1110.35 239.508C1107.14 237.144 1103.86 234.875 1100.51 232.705L1102.69 229.348C1106.11 231.562 1109.45 233.877 1112.72 236.288L1110.35 239.508ZM1090.28 226.507C1086.82 224.548 1083.29 222.69 1079.7 220.938L1081.45 217.343C1085.11 219.131 1088.72 221.026 1092.25 223.025L1090.28 226.507ZM1068.79 216.024C1065.12 214.501 1061.39 213.085 1057.61 211.781L1058.92 208C1062.77 209.331 1066.58 210.775 1070.32 212.329L1068.79 216.024ZM1046.19 208.226C1042.36 207.161 1038.49 206.208 1034.57 205.372L1035.41 201.46C1039.41 202.314 1043.36 203.286 1047.26 204.372L1046.19 208.226ZM1022.8 203.228C1018.88 202.636 1014.93 202.159 1010.93 201.801L1011.29 197.817C1015.36 198.183 1019.4 198.669 1023.4 199.273L1022.8 203.228ZM1193 399L1181.16 379.174L1204.25 378.831L1193 399ZM993 199L1013.17 187.751L1012.83 210.843L993 199ZM1190.2 381.067C1189.84 377.075 1189.36 373.117 1188.77 369.197L1192.73 368.6C1193.33 372.599 1193.82 376.637 1194.18 380.709L1190.2 381.067ZM1186.63 357.426C1185.79 353.509 1184.84 349.635 1183.77 345.808L1187.63 344.736C1188.71 348.641 1189.69 352.593 1190.54 356.59L1186.63 357.426ZM1180.22 334.389C1178.91 330.609 1177.5 326.881 1175.98 323.209L1179.67 321.676C1181.23 325.423 1182.67 329.227 1184 333.084L1180.22 334.389ZM1171.06 312.305C1169.31 308.713 1167.45 305.183 1165.49 301.717L1168.98 299.749C1170.97 303.285 1172.87 306.887 1174.66 310.551L1171.06 312.305ZM1159.3 291.486C1157.12 288.136 1154.86 284.855 1152.49 281.648L1155.71 279.275C1158.12 282.547 1160.44 285.893 1162.65 289.311L1159.3 291.486ZM1145.11 272.237C1142.55 269.173 1139.91 266.188 1137.17 263.286L1140.09 260.543C1142.87 263.504 1145.57 266.549 1148.18 269.675L1145.11 272.237ZM1128.71 254.827C1125.81 252.094 1122.83 249.447 1119.76 246.891L1122.33 243.82C1125.45 246.427 1128.5 249.127 1131.46 251.915L1128.71 254.827ZM1110.35 239.508C1107.14 237.144 1103.86 234.875 1100.51 232.705L1102.69 229.348C1106.11 231.562 1109.45 233.877 1112.72 236.288L1110.35 239.508ZM1090.28 226.507C1086.82 224.548 1083.29 222.69 1079.7 220.938L1081.45 217.343C1085.11 219.131 1088.72 221.026 1092.25 223.025L1090.28 226.507ZM1068.79 216.024C1065.12 214.501 1061.39 213.085 1057.61 211.781L1058.92 208C1062.77 209.331 1066.58 210.775 1070.32 212.329L1068.79 216.024ZM1046.19 208.226C1042.36 207.161 1038.49 206.208 1034.57 205.372L1035.41 201.46C1039.41 202.314 1043.36 203.286 1047.26 204.372L1046.19 208.226ZM1022.8 203.228C1018.88 202.636 1014.93 202.159 1010.93 201.801L1011.29 197.817C1015.36 198.183 1019.4 198.669 1023.4 199.273L1022.8 203.228Z" fill="#757575"/>
</svg>
