<svg width="1808" height="782" viewBox="0 0 1808 782" fill="none" xmlns="http://www.w3.org/2000/svg">
<g filter="url(#filter0_f_722_42109)">
<rect x="104" y="4" width="20" height="20" rx="10" fill="white"/>
</g>
<g filter="url(#filter1_f_722_42109)">
<rect x="104" y="44" width="20" height="20" rx="10" fill="white"/>
</g>
<g filter="url(#filter2_f_722_42109)">
<rect x="84" y="24" width="20" height="20" rx="10" fill="white"/>
</g>
<g filter="url(#filter3_f_722_42109)">
<rect x="64" y="44" width="20" height="20" rx="10" fill="white"/>
</g>
<g filter="url(#filter4_f_722_42109)">
<rect x="104" y="84" width="20" height="20" rx="10" fill="white"/>
</g>
<g filter="url(#filter5_f_722_42109)">
<rect x="84" y="64" width="20" height="20" rx="10" fill="white"/>
</g>
<g filter="url(#filter6_f_722_42109)">
<rect x="64" y="84" width="20" height="20" rx="10" fill="white"/>
</g>
<g filter="url(#filter7_f_722_42109)">
<rect x="124" y="24" width="20" height="20" rx="10" fill="white"/>
</g>
<g filter="url(#filter8_f_722_42109)">
<rect x="124" y="64" width="20" height="20" rx="10" fill="white"/>
</g>
<g filter="url(#filter9_f_722_42109)">
<rect x="124" y="104" width="20" height="20" rx="10" fill="white"/>
</g>
<g filter="url(#filter10_f_722_42109)">
<rect x="144" y="4" width="20" height="20" rx="10" fill="white"/>
</g>
<g filter="url(#filter11_f_722_42109)">
<rect x="144" y="44" width="20" height="20" rx="10" fill="white"/>
</g>
<g filter="url(#filter12_f_722_42109)">
<rect x="144" y="84" width="20" height="20" rx="10" fill="white"/>
</g>
<g filter="url(#filter13_f_722_42109)">
<rect x="164" y="24" width="20" height="20" rx="10" fill="white"/>
</g>
<g filter="url(#filter14_f_722_42109)">
<rect x="104" y="124" width="20" height="20" rx="10" fill="white"/>
</g>
<g filter="url(#filter15_f_722_42109)">
<rect x="44" y="104" width="20" height="20" rx="10" fill="white"/>
</g>
<g filter="url(#filter16_f_722_42109)">
<rect x="84" y="104" width="20" height="20" rx="10" fill="white"/>
</g>
<g filter="url(#filter17_f_722_42109)">
<rect x="4" y="104" width="20" height="20" rx="10" fill="white"/>
</g>
<g filter="url(#filter18_f_722_42109)">
<rect x="1764" y="715" width="20" height="20" rx="10" transform="rotate(180 1764 715)" fill="white"/>
</g>
<g filter="url(#filter19_f_722_42109)">
<rect x="1515" y="144" width="20" height="20" rx="10" transform="rotate(180 1515 144)" fill="white"/>
</g>
<g filter="url(#filter20_f_722_42109)">
<rect x="1764" y="675" width="20" height="20" rx="10" transform="rotate(180 1764 675)" fill="white"/>
</g>
<g filter="url(#filter21_f_722_42109)">
<rect x="1515" y="104" width="20" height="20" rx="10" transform="rotate(180 1515 104)" fill="white"/>
</g>
<g filter="url(#filter22_f_722_42109)">
<rect x="1784" y="695" width="20" height="20" rx="10" transform="rotate(180 1784 695)" fill="white"/>
</g>
<g filter="url(#filter23_f_722_42109)">
<rect x="1804" y="675" width="20" height="20" rx="10" transform="rotate(180 1804 675)" fill="white"/>
</g>
<g filter="url(#filter24_f_722_42109)">
<rect x="1764" y="635" width="20" height="20" rx="10" transform="rotate(180 1764 635)" fill="white"/>
</g>
<g filter="url(#filter25_f_722_42109)">
<rect x="1515" y="64" width="20" height="20" rx="10" transform="rotate(180 1515 64)" fill="white"/>
</g>
<g filter="url(#filter26_f_722_42109)">
<rect x="1784" y="655" width="20" height="20" rx="10" transform="rotate(180 1784 655)" fill="white"/>
</g>
<g filter="url(#filter27_f_722_42109)">
<rect x="1804" y="635" width="20" height="20" rx="10" transform="rotate(180 1804 635)" fill="white"/>
</g>
<g filter="url(#filter28_f_722_42109)">
<rect x="1744" y="695" width="20" height="20" rx="10" transform="rotate(180 1744 695)" fill="white"/>
</g>
<g filter="url(#filter29_f_722_42109)">
<rect x="1495" y="124" width="20" height="20" rx="10" transform="rotate(180 1495 124)" fill="white"/>
</g>
<g filter="url(#filter30_f_722_42109)">
<rect x="1744" y="655" width="20" height="20" rx="10" transform="rotate(180 1744 655)" fill="white"/>
</g>
<g filter="url(#filter31_f_722_42109)">
<rect x="1495" y="84" width="20" height="20" rx="10" transform="rotate(180 1495 84)" fill="white"/>
</g>
<g filter="url(#filter32_f_722_42109)">
<rect x="1744" y="615" width="20" height="20" rx="10" transform="rotate(180 1744 615)" fill="white"/>
</g>
<g filter="url(#filter33_f_722_42109)">
<rect x="1495" y="44" width="20" height="20" rx="10" transform="rotate(180 1495 44)" fill="white"/>
</g>
<g filter="url(#filter34_f_722_42109)">
<rect x="1724" y="715" width="20" height="20" rx="10" transform="rotate(180 1724 715)" fill="white"/>
</g>
<g filter="url(#filter35_f_722_42109)">
<rect x="1475" y="144" width="20" height="20" rx="10" transform="rotate(180 1475 144)" fill="white"/>
</g>
<g filter="url(#filter36_f_722_42109)">
<rect x="1724" y="675" width="20" height="20" rx="10" transform="rotate(180 1724 675)" fill="white"/>
</g>
<g filter="url(#filter37_f_722_42109)">
<rect x="1475" y="104" width="20" height="20" rx="10" transform="rotate(180 1475 104)" fill="white"/>
</g>
<g filter="url(#filter38_f_722_42109)">
<rect x="1724" y="635" width="20" height="20" rx="10" transform="rotate(180 1724 635)" fill="white"/>
</g>
<g filter="url(#filter39_f_722_42109)">
<rect x="1475" y="64" width="20" height="20" rx="10" transform="rotate(180 1475 64)" fill="white"/>
</g>
<g filter="url(#filter40_f_722_42109)">
<rect x="1704" y="695" width="20" height="20" rx="10" transform="rotate(180 1704 695)" fill="white"/>
</g>
<g filter="url(#filter41_f_722_42109)">
<rect x="1764" y="595" width="20" height="20" rx="10" transform="rotate(180 1764 595)" fill="white"/>
</g>
<g filter="url(#filter42_f_722_42109)">
<rect x="1515" y="24" width="20" height="20" rx="10" transform="rotate(180 1515 24)" fill="white"/>
</g>
<g filter="url(#filter43_f_722_42109)">
<rect x="1784" y="615" width="20" height="20" rx="10" transform="rotate(180 1784 615)" fill="white"/>
</g>
<g filter="url(#filter44_f_722_42109)">
<rect x="1804" y="595" width="20" height="20" rx="10" transform="rotate(180 1804 595)" fill="white"/>
</g>
<rect x="1764" y="715" width="20" height="20" rx="10" transform="rotate(180 1764 715)" fill="#757575"/>
<rect x="1515" y="144" width="20" height="20" rx="10" transform="rotate(180 1515 144)" fill="#757575"/>
<rect x="1764" y="675" width="20" height="20" rx="10" transform="rotate(180 1764 675)" fill="#757575"/>
<rect x="1515" y="104" width="20" height="20" rx="10" transform="rotate(180 1515 104)" fill="#757575"/>
<rect x="1784" y="695" width="20" height="20" rx="10" transform="rotate(180 1784 695)" fill="#757575"/>
<rect x="1804" y="675" width="20" height="20" rx="10" transform="rotate(180 1804 675)" fill="#757575"/>
<rect x="1764" y="635" width="20" height="20" rx="10" transform="rotate(180 1764 635)" fill="#757575"/>
<rect x="1515" y="64" width="20" height="20" rx="10" transform="rotate(180 1515 64)" fill="#757575"/>
<rect x="1784" y="655" width="20" height="20" rx="10" transform="rotate(180 1784 655)" fill="#757575"/>
<rect x="1804" y="635" width="20" height="20" rx="10" transform="rotate(180 1804 635)" fill="#757575"/>
<rect x="1744" y="695" width="20" height="20" rx="10" transform="rotate(180 1744 695)" fill="#757575"/>
<rect x="1495" y="124" width="20" height="20" rx="10" transform="rotate(180 1495 124)" fill="#757575"/>
<rect x="1744" y="655" width="20" height="20" rx="10" transform="rotate(180 1744 655)" fill="#757575"/>
<rect x="1495" y="84" width="20" height="20" rx="10" transform="rotate(180 1495 84)" fill="#757575"/>
<rect x="1744" y="615" width="20" height="20" rx="10" transform="rotate(180 1744 615)" fill="#757575"/>
<rect x="1495" y="44" width="20" height="20" rx="10" transform="rotate(180 1495 44)" fill="#757575"/>
<rect x="1724" y="715" width="20" height="20" rx="10" transform="rotate(180 1724 715)" fill="#757575"/>
<rect x="1475" y="144" width="20" height="20" rx="10" transform="rotate(180 1475 144)" fill="#757575"/>
<rect x="1724" y="675" width="20" height="20" rx="10" transform="rotate(180 1724 675)" fill="#757575"/>
<rect x="1475" y="104" width="20" height="20" rx="10" transform="rotate(180 1475 104)" fill="#757575"/>
<rect x="1724" y="635" width="20" height="20" rx="10" transform="rotate(180 1724 635)" fill="#757575"/>
<rect x="1475" y="64" width="20" height="20" rx="10" transform="rotate(180 1475 64)" fill="#757575"/>
<rect x="1704" y="695" width="20" height="20" rx="10" transform="rotate(180 1704 695)" fill="#757575"/>
<rect x="1764" y="595" width="20" height="20" rx="10" transform="rotate(180 1764 595)" fill="#757575"/>
<rect x="1515" y="24" width="20" height="20" rx="10" transform="rotate(180 1515 24)" fill="#757575"/>
<rect x="1784" y="615" width="20" height="20" rx="10" transform="rotate(180 1784 615)" fill="#757575"/>
<rect x="1804" y="595" width="20" height="20" rx="10" transform="rotate(180 1804 595)" fill="#757575"/>
<g filter="url(#filter45_f_722_42109)">
<rect x="189" y="193" width="20" height="20" rx="10" transform="rotate(180 189 193)" fill="white"/>
</g>
<g filter="url(#filter46_f_722_42109)">
<rect x="189" y="153" width="20" height="20" rx="10" transform="rotate(180 189 153)" fill="white"/>
</g>
<g filter="url(#filter47_f_722_42109)">
<rect x="209" y="173" width="20" height="20" rx="10" transform="rotate(180 209 173)" fill="white"/>
</g>
<rect x="104" y="4" width="20" height="20" rx="10" fill="#757575"/>
<rect x="104" y="44" width="20" height="20" rx="10" fill="#757575"/>
<rect x="84" y="24" width="20" height="20" rx="10" fill="#757575"/>
<rect x="64" y="44" width="20" height="20" rx="10" fill="#757575"/>
<rect x="104" y="84" width="20" height="20" rx="10" fill="#757575"/>
<rect x="84" y="64" width="20" height="20" rx="10" fill="#757575"/>
<rect x="64" y="84" width="20" height="20" rx="10" fill="#757575"/>
<rect x="124" y="24" width="20" height="20" rx="10" fill="#757575"/>
<rect x="124" y="64" width="20" height="20" rx="10" fill="#757575"/>
<rect x="124" y="104" width="20" height="20" rx="10" fill="#757575"/>
<rect x="144" y="4" width="20" height="20" rx="10" fill="#757575"/>
<rect x="144" y="44" width="20" height="20" rx="10" fill="#757575"/>
<rect x="144" y="84" width="20" height="20" rx="10" fill="#757575"/>
<rect x="164" y="24" width="20" height="20" rx="10" fill="#757575"/>
<rect x="104" y="124" width="20" height="20" rx="10" fill="#757575"/>
<rect x="44" y="104" width="20" height="20" rx="10" fill="#757575"/>
<rect x="84" y="104" width="20" height="20" rx="10" fill="#757575"/>
<rect x="4" y="104" width="20" height="20" rx="10" fill="#757575"/>
<rect x="189" y="193" width="20" height="20" rx="10" transform="rotate(180 189 193)" fill="#757575"/>
<rect x="189" y="153" width="20" height="20" rx="10" transform="rotate(180 189 153)" fill="#757575"/>
<rect x="209" y="173" width="20" height="20" rx="10" transform="rotate(180 209 173)" fill="#757575"/>
<g filter="url(#filter48_f_722_42109)">
<rect x="681" y="758" width="20" height="20" rx="10" transform="rotate(-90 681 758)" fill="white"/>
</g>
<g filter="url(#filter49_f_722_42109)">
<rect x="741" y="738" width="20" height="20" rx="10" transform="rotate(-90 741 738)" fill="white"/>
</g>
<g filter="url(#filter50_f_722_42109)">
<rect x="721" y="758" width="20" height="20" rx="10" transform="rotate(-90 721 758)" fill="white"/>
</g>
<g filter="url(#filter51_f_722_42109)">
<rect x="781" y="738" width="20" height="20" rx="10" transform="rotate(-90 781 738)" fill="white"/>
</g>
<g filter="url(#filter52_f_722_42109)">
<rect x="721" y="718" width="20" height="20" rx="10" transform="rotate(-90 721 718)" fill="white"/>
</g>
<g filter="url(#filter53_f_722_42109)">
<rect x="701" y="778" width="20" height="20" rx="10" transform="rotate(-90 701 778)" fill="white"/>
</g>
<g filter="url(#filter54_f_722_42109)">
<rect x="761" y="758" width="20" height="20" rx="10" transform="rotate(-90 761 758)" fill="white"/>
</g>
<g filter="url(#filter55_f_722_42109)">
<rect x="701" y="738" width="20" height="20" rx="10" transform="rotate(-90 701 738)" fill="white"/>
</g>
<rect x="681" y="758" width="20" height="20" rx="10" transform="rotate(-90 681 758)" fill="#757575"/>
<rect x="741" y="738" width="20" height="20" rx="10" transform="rotate(-90 741 738)" fill="#757575"/>
<rect x="721" y="758" width="20" height="20" rx="10" transform="rotate(-90 721 758)" fill="#757575"/>
<rect x="781" y="738" width="20" height="20" rx="10" transform="rotate(-90 781 738)" fill="#757575"/>
<rect x="721" y="718" width="20" height="20" rx="10" transform="rotate(-90 721 718)" fill="#757575"/>
<rect x="701" y="778" width="20" height="20" rx="10" transform="rotate(-90 701 778)" fill="#757575"/>
<rect x="761" y="758" width="20" height="20" rx="10" transform="rotate(-90 761 758)" fill="#757575"/>
<rect x="701" y="738" width="20" height="20" rx="10" transform="rotate(-90 701 738)" fill="#757575"/>
<defs>
<filter id="filter0_f_722_42109" x="100" y="0" width="28" height="28" filterUnits="userSpaceOnUse" color-interpolation-filters="sRGB">
<feFlood flood-opacity="0" result="BackgroundImageFix"/>
<feBlend mode="normal" in="SourceGraphic" in2="BackgroundImageFix" result="shape"/>
<feGaussianBlur stdDeviation="2" result="effect1_foregroundBlur_722_42109"/>
</filter>
<filter id="filter1_f_722_42109" x="100" y="40" width="28" height="28" filterUnits="userSpaceOnUse" color-interpolation-filters="sRGB">
<feFlood flood-opacity="0" result="BackgroundImageFix"/>
<feBlend mode="normal" in="SourceGraphic" in2="BackgroundImageFix" result="shape"/>
<feGaussianBlur stdDeviation="2" result="effect1_foregroundBlur_722_42109"/>
</filter>
<filter id="filter2_f_722_42109" x="80" y="20" width="28" height="28" filterUnits="userSpaceOnUse" color-interpolation-filters="sRGB">
<feFlood flood-opacity="0" result="BackgroundImageFix"/>
<feBlend mode="normal" in="SourceGraphic" in2="BackgroundImageFix" result="shape"/>
<feGaussianBlur stdDeviation="2" result="effect1_foregroundBlur_722_42109"/>
</filter>
<filter id="filter3_f_722_42109" x="60" y="40" width="28" height="28" filterUnits="userSpaceOnUse" color-interpolation-filters="sRGB">
<feFlood flood-opacity="0" result="BackgroundImageFix"/>
<feBlend mode="normal" in="SourceGraphic" in2="BackgroundImageFix" result="shape"/>
<feGaussianBlur stdDeviation="2" result="effect1_foregroundBlur_722_42109"/>
</filter>
<filter id="filter4_f_722_42109" x="100" y="80" width="28" height="28" filterUnits="userSpaceOnUse" color-interpolation-filters="sRGB">
<feFlood flood-opacity="0" result="BackgroundImageFix"/>
<feBlend mode="normal" in="SourceGraphic" in2="BackgroundImageFix" result="shape"/>
<feGaussianBlur stdDeviation="2" result="effect1_foregroundBlur_722_42109"/>
</filter>
<filter id="filter5_f_722_42109" x="80" y="60" width="28" height="28" filterUnits="userSpaceOnUse" color-interpolation-filters="sRGB">
<feFlood flood-opacity="0" result="BackgroundImageFix"/>
<feBlend mode="normal" in="SourceGraphic" in2="BackgroundImageFix" result="shape"/>
<feGaussianBlur stdDeviation="2" result="effect1_foregroundBlur_722_42109"/>
</filter>
<filter id="filter6_f_722_42109" x="60" y="80" width="28" height="28" filterUnits="userSpaceOnUse" color-interpolation-filters="sRGB">
<feFlood flood-opacity="0" result="BackgroundImageFix"/>
<feBlend mode="normal" in="SourceGraphic" in2="BackgroundImageFix" result="shape"/>
<feGaussianBlur stdDeviation="2" result="effect1_foregroundBlur_722_42109"/>
</filter>
<filter id="filter7_f_722_42109" x="120" y="20" width="28" height="28" filterUnits="userSpaceOnUse" color-interpolation-filters="sRGB">
<feFlood flood-opacity="0" result="BackgroundImageFix"/>
<feBlend mode="normal" in="SourceGraphic" in2="BackgroundImageFix" result="shape"/>
<feGaussianBlur stdDeviation="2" result="effect1_foregroundBlur_722_42109"/>
</filter>
<filter id="filter8_f_722_42109" x="120" y="60" width="28" height="28" filterUnits="userSpaceOnUse" color-interpolation-filters="sRGB">
<feFlood flood-opacity="0" result="BackgroundImageFix"/>
<feBlend mode="normal" in="SourceGraphic" in2="BackgroundImageFix" result="shape"/>
<feGaussianBlur stdDeviation="2" result="effect1_foregroundBlur_722_42109"/>
</filter>
<filter id="filter9_f_722_42109" x="120" y="100" width="28" height="28" filterUnits="userSpaceOnUse" color-interpolation-filters="sRGB">
<feFlood flood-opacity="0" result="BackgroundImageFix"/>
<feBlend mode="normal" in="SourceGraphic" in2="BackgroundImageFix" result="shape"/>
<feGaussianBlur stdDeviation="2" result="effect1_foregroundBlur_722_42109"/>
</filter>
<filter id="filter10_f_722_42109" x="140" y="0" width="28" height="28" filterUnits="userSpaceOnUse" color-interpolation-filters="sRGB">
<feFlood flood-opacity="0" result="BackgroundImageFix"/>
<feBlend mode="normal" in="SourceGraphic" in2="BackgroundImageFix" result="shape"/>
<feGaussianBlur stdDeviation="2" result="effect1_foregroundBlur_722_42109"/>
</filter>
<filter id="filter11_f_722_42109" x="140" y="40" width="28" height="28" filterUnits="userSpaceOnUse" color-interpolation-filters="sRGB">
<feFlood flood-opacity="0" result="BackgroundImageFix"/>
<feBlend mode="normal" in="SourceGraphic" in2="BackgroundImageFix" result="shape"/>
<feGaussianBlur stdDeviation="2" result="effect1_foregroundBlur_722_42109"/>
</filter>
<filter id="filter12_f_722_42109" x="140" y="80" width="28" height="28" filterUnits="userSpaceOnUse" color-interpolation-filters="sRGB">
<feFlood flood-opacity="0" result="BackgroundImageFix"/>
<feBlend mode="normal" in="SourceGraphic" in2="BackgroundImageFix" result="shape"/>
<feGaussianBlur stdDeviation="2" result="effect1_foregroundBlur_722_42109"/>
</filter>
<filter id="filter13_f_722_42109" x="160" y="20" width="28" height="28" filterUnits="userSpaceOnUse" color-interpolation-filters="sRGB">
<feFlood flood-opacity="0" result="BackgroundImageFix"/>
<feBlend mode="normal" in="SourceGraphic" in2="BackgroundImageFix" result="shape"/>
<feGaussianBlur stdDeviation="2" result="effect1_foregroundBlur_722_42109"/>
</filter>
<filter id="filter14_f_722_42109" x="100" y="120" width="28" height="28" filterUnits="userSpaceOnUse" color-interpolation-filters="sRGB">
<feFlood flood-opacity="0" result="BackgroundImageFix"/>
<feBlend mode="normal" in="SourceGraphic" in2="BackgroundImageFix" result="shape"/>
<feGaussianBlur stdDeviation="2" result="effect1_foregroundBlur_722_42109"/>
</filter>
<filter id="filter15_f_722_42109" x="40" y="100" width="28" height="28" filterUnits="userSpaceOnUse" color-interpolation-filters="sRGB">
<feFlood flood-opacity="0" result="BackgroundImageFix"/>
<feBlend mode="normal" in="SourceGraphic" in2="BackgroundImageFix" result="shape"/>
<feGaussianBlur stdDeviation="2" result="effect1_foregroundBlur_722_42109"/>
</filter>
<filter id="filter16_f_722_42109" x="80" y="100" width="28" height="28" filterUnits="userSpaceOnUse" color-interpolation-filters="sRGB">
<feFlood flood-opacity="0" result="BackgroundImageFix"/>
<feBlend mode="normal" in="SourceGraphic" in2="BackgroundImageFix" result="shape"/>
<feGaussianBlur stdDeviation="2" result="effect1_foregroundBlur_722_42109"/>
</filter>
<filter id="filter17_f_722_42109" x="0" y="100" width="28" height="28" filterUnits="userSpaceOnUse" color-interpolation-filters="sRGB">
<feFlood flood-opacity="0" result="BackgroundImageFix"/>
<feBlend mode="normal" in="SourceGraphic" in2="BackgroundImageFix" result="shape"/>
<feGaussianBlur stdDeviation="2" result="effect1_foregroundBlur_722_42109"/>
</filter>
<filter id="filter18_f_722_42109" x="1740" y="691" width="28" height="28" filterUnits="userSpaceOnUse" color-interpolation-filters="sRGB">
<feFlood flood-opacity="0" result="BackgroundImageFix"/>
<feBlend mode="normal" in="SourceGraphic" in2="BackgroundImageFix" result="shape"/>
<feGaussianBlur stdDeviation="2" result="effect1_foregroundBlur_722_42109"/>
</filter>
<filter id="filter19_f_722_42109" x="1491" y="120" width="28" height="28" filterUnits="userSpaceOnUse" color-interpolation-filters="sRGB">
<feFlood flood-opacity="0" result="BackgroundImageFix"/>
<feBlend mode="normal" in="SourceGraphic" in2="BackgroundImageFix" result="shape"/>
<feGaussianBlur stdDeviation="2" result="effect1_foregroundBlur_722_42109"/>
</filter>
<filter id="filter20_f_722_42109" x="1740" y="651" width="28" height="28" filterUnits="userSpaceOnUse" color-interpolation-filters="sRGB">
<feFlood flood-opacity="0" result="BackgroundImageFix"/>
<feBlend mode="normal" in="SourceGraphic" in2="BackgroundImageFix" result="shape"/>
<feGaussianBlur stdDeviation="2" result="effect1_foregroundBlur_722_42109"/>
</filter>
<filter id="filter21_f_722_42109" x="1491" y="80" width="28" height="28" filterUnits="userSpaceOnUse" color-interpolation-filters="sRGB">
<feFlood flood-opacity="0" result="BackgroundImageFix"/>
<feBlend mode="normal" in="SourceGraphic" in2="BackgroundImageFix" result="shape"/>
<feGaussianBlur stdDeviation="2" result="effect1_foregroundBlur_722_42109"/>
</filter>
<filter id="filter22_f_722_42109" x="1760" y="671" width="28" height="28" filterUnits="userSpaceOnUse" color-interpolation-filters="sRGB">
<feFlood flood-opacity="0" result="BackgroundImageFix"/>
<feBlend mode="normal" in="SourceGraphic" in2="BackgroundImageFix" result="shape"/>
<feGaussianBlur stdDeviation="2" result="effect1_foregroundBlur_722_42109"/>
</filter>
<filter id="filter23_f_722_42109" x="1780" y="651" width="28" height="28" filterUnits="userSpaceOnUse" color-interpolation-filters="sRGB">
<feFlood flood-opacity="0" result="BackgroundImageFix"/>
<feBlend mode="normal" in="SourceGraphic" in2="BackgroundImageFix" result="shape"/>
<feGaussianBlur stdDeviation="2" result="effect1_foregroundBlur_722_42109"/>
</filter>
<filter id="filter24_f_722_42109" x="1740" y="611" width="28" height="28" filterUnits="userSpaceOnUse" color-interpolation-filters="sRGB">
<feFlood flood-opacity="0" result="BackgroundImageFix"/>
<feBlend mode="normal" in="SourceGraphic" in2="BackgroundImageFix" result="shape"/>
<feGaussianBlur stdDeviation="2" result="effect1_foregroundBlur_722_42109"/>
</filter>
<filter id="filter25_f_722_42109" x="1491" y="40" width="28" height="28" filterUnits="userSpaceOnUse" color-interpolation-filters="sRGB">
<feFlood flood-opacity="0" result="BackgroundImageFix"/>
<feBlend mode="normal" in="SourceGraphic" in2="BackgroundImageFix" result="shape"/>
<feGaussianBlur stdDeviation="2" result="effect1_foregroundBlur_722_42109"/>
</filter>
<filter id="filter26_f_722_42109" x="1760" y="631" width="28" height="28" filterUnits="userSpaceOnUse" color-interpolation-filters="sRGB">
<feFlood flood-opacity="0" result="BackgroundImageFix"/>
<feBlend mode="normal" in="SourceGraphic" in2="BackgroundImageFix" result="shape"/>
<feGaussianBlur stdDeviation="2" result="effect1_foregroundBlur_722_42109"/>
</filter>
<filter id="filter27_f_722_42109" x="1780" y="611" width="28" height="28" filterUnits="userSpaceOnUse" color-interpolation-filters="sRGB">
<feFlood flood-opacity="0" result="BackgroundImageFix"/>
<feBlend mode="normal" in="SourceGraphic" in2="BackgroundImageFix" result="shape"/>
<feGaussianBlur stdDeviation="2" result="effect1_foregroundBlur_722_42109"/>
</filter>
<filter id="filter28_f_722_42109" x="1720" y="671" width="28" height="28" filterUnits="userSpaceOnUse" color-interpolation-filters="sRGB">
<feFlood flood-opacity="0" result="BackgroundImageFix"/>
<feBlend mode="normal" in="SourceGraphic" in2="BackgroundImageFix" result="shape"/>
<feGaussianBlur stdDeviation="2" result="effect1_foregroundBlur_722_42109"/>
</filter>
<filter id="filter29_f_722_42109" x="1471" y="100" width="28" height="28" filterUnits="userSpaceOnUse" color-interpolation-filters="sRGB">
<feFlood flood-opacity="0" result="BackgroundImageFix"/>
<feBlend mode="normal" in="SourceGraphic" in2="BackgroundImageFix" result="shape"/>
<feGaussianBlur stdDeviation="2" result="effect1_foregroundBlur_722_42109"/>
</filter>
<filter id="filter30_f_722_42109" x="1720" y="631" width="28" height="28" filterUnits="userSpaceOnUse" color-interpolation-filters="sRGB">
<feFlood flood-opacity="0" result="BackgroundImageFix"/>
<feBlend mode="normal" in="SourceGraphic" in2="BackgroundImageFix" result="shape"/>
<feGaussianBlur stdDeviation="2" result="effect1_foregroundBlur_722_42109"/>
</filter>
<filter id="filter31_f_722_42109" x="1471" y="60" width="28" height="28" filterUnits="userSpaceOnUse" color-interpolation-filters="sRGB">
<feFlood flood-opacity="0" result="BackgroundImageFix"/>
<feBlend mode="normal" in="SourceGraphic" in2="BackgroundImageFix" result="shape"/>
<feGaussianBlur stdDeviation="2" result="effect1_foregroundBlur_722_42109"/>
</filter>
<filter id="filter32_f_722_42109" x="1720" y="591" width="28" height="28" filterUnits="userSpaceOnUse" color-interpolation-filters="sRGB">
<feFlood flood-opacity="0" result="BackgroundImageFix"/>
<feBlend mode="normal" in="SourceGraphic" in2="BackgroundImageFix" result="shape"/>
<feGaussianBlur stdDeviation="2" result="effect1_foregroundBlur_722_42109"/>
</filter>
<filter id="filter33_f_722_42109" x="1471" y="20" width="28" height="28" filterUnits="userSpaceOnUse" color-interpolation-filters="sRGB">
<feFlood flood-opacity="0" result="BackgroundImageFix"/>
<feBlend mode="normal" in="SourceGraphic" in2="BackgroundImageFix" result="shape"/>
<feGaussianBlur stdDeviation="2" result="effect1_foregroundBlur_722_42109"/>
</filter>
<filter id="filter34_f_722_42109" x="1700" y="691" width="28" height="28" filterUnits="userSpaceOnUse" color-interpolation-filters="sRGB">
<feFlood flood-opacity="0" result="BackgroundImageFix"/>
<feBlend mode="normal" in="SourceGraphic" in2="BackgroundImageFix" result="shape"/>
<feGaussianBlur stdDeviation="2" result="effect1_foregroundBlur_722_42109"/>
</filter>
<filter id="filter35_f_722_42109" x="1451" y="120" width="28" height="28" filterUnits="userSpaceOnUse" color-interpolation-filters="sRGB">
<feFlood flood-opacity="0" result="BackgroundImageFix"/>
<feBlend mode="normal" in="SourceGraphic" in2="BackgroundImageFix" result="shape"/>
<feGaussianBlur stdDeviation="2" result="effect1_foregroundBlur_722_42109"/>
</filter>
<filter id="filter36_f_722_42109" x="1700" y="651" width="28" height="28" filterUnits="userSpaceOnUse" color-interpolation-filters="sRGB">
<feFlood flood-opacity="0" result="BackgroundImageFix"/>
<feBlend mode="normal" in="SourceGraphic" in2="BackgroundImageFix" result="shape"/>
<feGaussianBlur stdDeviation="2" result="effect1_foregroundBlur_722_42109"/>
</filter>
<filter id="filter37_f_722_42109" x="1451" y="80" width="28" height="28" filterUnits="userSpaceOnUse" color-interpolation-filters="sRGB">
<feFlood flood-opacity="0" result="BackgroundImageFix"/>
<feBlend mode="normal" in="SourceGraphic" in2="BackgroundImageFix" result="shape"/>
<feGaussianBlur stdDeviation="2" result="effect1_foregroundBlur_722_42109"/>
</filter>
<filter id="filter38_f_722_42109" x="1700" y="611" width="28" height="28" filterUnits="userSpaceOnUse" color-interpolation-filters="sRGB">
<feFlood flood-opacity="0" result="BackgroundImageFix"/>
<feBlend mode="normal" in="SourceGraphic" in2="BackgroundImageFix" result="shape"/>
<feGaussianBlur stdDeviation="2" result="effect1_foregroundBlur_722_42109"/>
</filter>
<filter id="filter39_f_722_42109" x="1451" y="40" width="28" height="28" filterUnits="userSpaceOnUse" color-interpolation-filters="sRGB">
<feFlood flood-opacity="0" result="BackgroundImageFix"/>
<feBlend mode="normal" in="SourceGraphic" in2="BackgroundImageFix" result="shape"/>
<feGaussianBlur stdDeviation="2" result="effect1_foregroundBlur_722_42109"/>
</filter>
<filter id="filter40_f_722_42109" x="1680" y="671" width="28" height="28" filterUnits="userSpaceOnUse" color-interpolation-filters="sRGB">
<feFlood flood-opacity="0" result="BackgroundImageFix"/>
<feBlend mode="normal" in="SourceGraphic" in2="BackgroundImageFix" result="shape"/>
<feGaussianBlur stdDeviation="2" result="effect1_foregroundBlur_722_42109"/>
</filter>
<filter id="filter41_f_722_42109" x="1740" y="571" width="28" height="28" filterUnits="userSpaceOnUse" color-interpolation-filters="sRGB">
<feFlood flood-opacity="0" result="BackgroundImageFix"/>
<feBlend mode="normal" in="SourceGraphic" in2="BackgroundImageFix" result="shape"/>
<feGaussianBlur stdDeviation="2" result="effect1_foregroundBlur_722_42109"/>
</filter>
<filter id="filter42_f_722_42109" x="1491" y="0" width="28" height="28" filterUnits="userSpaceOnUse" color-interpolation-filters="sRGB">
<feFlood flood-opacity="0" result="BackgroundImageFix"/>
<feBlend mode="normal" in="SourceGraphic" in2="BackgroundImageFix" result="shape"/>
<feGaussianBlur stdDeviation="2" result="effect1_foregroundBlur_722_42109"/>
</filter>
<filter id="filter43_f_722_42109" x="1760" y="591" width="28" height="28" filterUnits="userSpaceOnUse" color-interpolation-filters="sRGB">
<feFlood flood-opacity="0" result="BackgroundImageFix"/>
<feBlend mode="normal" in="SourceGraphic" in2="BackgroundImageFix" result="shape"/>
<feGaussianBlur stdDeviation="2" result="effect1_foregroundBlur_722_42109"/>
</filter>
<filter id="filter44_f_722_42109" x="1780" y="571" width="28" height="28" filterUnits="userSpaceOnUse" color-interpolation-filters="sRGB">
<feFlood flood-opacity="0" result="BackgroundImageFix"/>
<feBlend mode="normal" in="SourceGraphic" in2="BackgroundImageFix" result="shape"/>
<feGaussianBlur stdDeviation="2" result="effect1_foregroundBlur_722_42109"/>
</filter>
<filter id="filter45_f_722_42109" x="165" y="169" width="28" height="28" filterUnits="userSpaceOnUse" color-interpolation-filters="sRGB">
<feFlood flood-opacity="0" result="BackgroundImageFix"/>
<feBlend mode="normal" in="SourceGraphic" in2="BackgroundImageFix" result="shape"/>
<feGaussianBlur stdDeviation="2" result="effect1_foregroundBlur_722_42109"/>
</filter>
<filter id="filter46_f_722_42109" x="165" y="129" width="28" height="28" filterUnits="userSpaceOnUse" color-interpolation-filters="sRGB">
<feFlood flood-opacity="0" result="BackgroundImageFix"/>
<feBlend mode="normal" in="SourceGraphic" in2="BackgroundImageFix" result="shape"/>
<feGaussianBlur stdDeviation="2" result="effect1_foregroundBlur_722_42109"/>
</filter>
<filter id="filter47_f_722_42109" x="185" y="149" width="28" height="28" filterUnits="userSpaceOnUse" color-interpolation-filters="sRGB">
<feFlood flood-opacity="0" result="BackgroundImageFix"/>
<feBlend mode="normal" in="SourceGraphic" in2="BackgroundImageFix" result="shape"/>
<feGaussianBlur stdDeviation="2" result="effect1_foregroundBlur_722_42109"/>
</filter>
<filter id="filter48_f_722_42109" x="677" y="734" width="28" height="28" filterUnits="userSpaceOnUse" color-interpolation-filters="sRGB">
<feFlood flood-opacity="0" result="BackgroundImageFix"/>
<feBlend mode="normal" in="SourceGraphic" in2="BackgroundImageFix" result="shape"/>
<feGaussianBlur stdDeviation="2" result="effect1_foregroundBlur_722_42109"/>
</filter>
<filter id="filter49_f_722_42109" x="737" y="714" width="28" height="28" filterUnits="userSpaceOnUse" color-interpolation-filters="sRGB">
<feFlood flood-opacity="0" result="BackgroundImageFix"/>
<feBlend mode="normal" in="SourceGraphic" in2="BackgroundImageFix" result="shape"/>
<feGaussianBlur stdDeviation="2" result="effect1_foregroundBlur_722_42109"/>
</filter>
<filter id="filter50_f_722_42109" x="717" y="734" width="28" height="28" filterUnits="userSpaceOnUse" color-interpolation-filters="sRGB">
<feFlood flood-opacity="0" result="BackgroundImageFix"/>
<feBlend mode="normal" in="SourceGraphic" in2="BackgroundImageFix" result="shape"/>
<feGaussianBlur stdDeviation="2" result="effect1_foregroundBlur_722_42109"/>
</filter>
<filter id="filter51_f_722_42109" x="777" y="714" width="28" height="28" filterUnits="userSpaceOnUse" color-interpolation-filters="sRGB">
<feFlood flood-opacity="0" result="BackgroundImageFix"/>
<feBlend mode="normal" in="SourceGraphic" in2="BackgroundImageFix" result="shape"/>
<feGaussianBlur stdDeviation="2" result="effect1_foregroundBlur_722_42109"/>
</filter>
<filter id="filter52_f_722_42109" x="717" y="694" width="28" height="28" filterUnits="userSpaceOnUse" color-interpolation-filters="sRGB">
<feFlood flood-opacity="0" result="BackgroundImageFix"/>
<feBlend mode="normal" in="SourceGraphic" in2="BackgroundImageFix" result="shape"/>
<feGaussianBlur stdDeviation="2" result="effect1_foregroundBlur_722_42109"/>
</filter>
<filter id="filter53_f_722_42109" x="697" y="754" width="28" height="28" filterUnits="userSpaceOnUse" color-interpolation-filters="sRGB">
<feFlood flood-opacity="0" result="BackgroundImageFix"/>
<feBlend mode="normal" in="SourceGraphic" in2="BackgroundImageFix" result="shape"/>
<feGaussianBlur stdDeviation="2" result="effect1_foregroundBlur_722_42109"/>
</filter>
<filter id="filter54_f_722_42109" x="757" y="734" width="28" height="28" filterUnits="userSpaceOnUse" color-interpolation-filters="sRGB">
<feFlood flood-opacity="0" result="BackgroundImageFix"/>
<feBlend mode="normal" in="SourceGraphic" in2="BackgroundImageFix" result="shape"/>
<feGaussianBlur stdDeviation="2" result="effect1_foregroundBlur_722_42109"/>
</filter>
<filter id="filter55_f_722_42109" x="697" y="714" width="28" height="28" filterUnits="userSpaceOnUse" color-interpolation-filters="sRGB">
<feFlood flood-opacity="0" result="BackgroundImageFix"/>
<feBlend mode="normal" in="SourceGraphic" in2="BackgroundImageFix" result="shape"/>
<feGaussianBlur stdDeviation="2" result="effect1_foregroundBlur_722_42109"/>
</filter>
</defs>
</svg>
