<svg width="345" height="345" viewBox="0 0 345 345" fill="none" xmlns="http://www.w3.org/2000/svg">
<circle cx="172.5" cy="172.5" r="170.5" fill="#CBCBCB" stroke="#757575" stroke-width="4"/>
<circle cx="172.5" cy="172.5" r="161.5" fill="#CBCBCB" stroke="#757575" stroke-width="4"/>
<path d="M292 179.5C292 245.498 238.498 299 172.5 299C106.502 299 53 245.498 53 179.5" stroke="#757575" stroke-width="4"/>
<path d="M172.5 60L151.696 49.9728L153.414 73.0028L172.5 60ZM55 179.5C55 120.607 98.3302 71.8298 154.85 63.3166L154.254 59.3612C95.8068 68.1648 51 118.598 51 179.5L55 179.5Z" fill="#757575"/>
<path d="M98.1914 193.297C96.6029 194.273 94.6497 194.762 92.332 194.762C88.5169 194.762 85.3919 193.44 82.957 190.797C80.418 188.141 79.1484 184.508 79.1484 179.898C79.1484 175.237 80.431 171.5 82.9961 168.688C85.5612 165.875 88.9531 164.469 93.1719 164.469C96.8307 164.469 99.7669 165.4 101.98 167.262C104.207 169.111 105.483 171.422 105.809 174.195H99.8906C99.4349 172.229 98.3216 170.855 96.5508 170.074C95.5612 169.645 94.4609 169.43 93.25 169.43C90.9323 169.43 89.0247 170.309 87.5273 172.066C86.043 173.811 85.3008 176.441 85.3008 179.957C85.3008 183.499 86.1081 186.005 87.7227 187.477C89.3372 188.948 91.1732 189.684 93.2305 189.684C95.2487 189.684 96.9023 189.104 98.1914 187.945C99.4805 186.773 100.275 185.243 100.574 183.355H93.9141V178.551H105.906V194H101.922L101.316 190.406C100.158 191.773 99.1159 192.737 98.1914 193.297ZM124.402 194.801C120.288 194.801 117.143 193.681 114.969 191.441C112.052 188.694 110.594 184.736 110.594 179.566C110.594 174.293 112.052 170.335 114.969 167.691C117.143 165.452 120.288 164.332 124.402 164.332C128.517 164.332 131.661 165.452 133.836 167.691C136.74 170.335 138.191 174.293 138.191 179.566C138.191 184.736 136.74 188.694 133.836 191.441C131.661 193.681 128.517 194.801 124.402 194.801ZM130.086 187.066C131.479 185.309 132.176 182.809 132.176 179.566C132.176 176.337 131.473 173.844 130.066 172.086C128.673 170.315 126.785 169.43 124.402 169.43C122.02 169.43 120.118 170.309 118.699 172.066C117.28 173.824 116.57 176.324 116.57 179.566C116.57 182.809 117.28 185.309 118.699 187.066C120.118 188.824 122.02 189.703 124.402 189.703C126.785 189.703 128.68 188.824 130.086 187.066ZM167.078 194H154.031V165.211H168.016C171.544 165.263 174.044 166.285 175.516 168.277C176.401 169.501 176.844 170.966 176.844 172.672C176.844 174.43 176.401 175.842 175.516 176.91C175.021 177.509 174.292 178.056 173.328 178.551C174.799 179.085 175.906 179.931 176.648 181.09C177.404 182.249 177.781 183.655 177.781 185.309C177.781 187.014 177.352 188.544 176.492 189.898C175.945 190.797 175.262 191.552 174.441 192.164C173.517 192.867 172.423 193.349 171.16 193.609C169.91 193.87 168.549 194 167.078 194ZM166.941 181.324H159.773V189H166.844C168.107 189 169.09 188.831 169.793 188.492C171.069 187.867 171.707 186.669 171.707 184.898C171.707 183.401 171.089 182.372 169.852 181.812C169.161 181.5 168.191 181.337 166.941 181.324ZM169.93 175.836C170.711 175.367 171.102 174.527 171.102 173.316C171.102 171.975 170.581 171.09 169.539 170.66C168.641 170.361 167.495 170.211 166.102 170.211H159.773V176.559H166.844C168.107 176.559 169.135 176.318 169.93 175.836ZM199.695 188.082H189.09L187.098 194H180.809L191.082 165.211H197.879L208.074 194H201.551L199.695 188.082ZM198.016 183.121L194.422 171.793L190.711 183.121H198.016ZM232.059 191.852C229.91 193.818 227.163 194.801 223.816 194.801C219.676 194.801 216.421 193.473 214.051 190.816C211.681 188.147 210.496 184.488 210.496 179.84C210.496 174.814 211.844 170.94 214.539 168.219C216.883 165.849 219.865 164.664 223.484 164.664C228.328 164.664 231.87 166.253 234.109 169.43C235.346 171.214 236.01 173.004 236.102 174.801H230.086C229.695 173.421 229.194 172.379 228.582 171.676C227.488 170.426 225.867 169.801 223.719 169.801C221.531 169.801 219.806 170.686 218.543 172.457C217.28 174.215 216.648 176.708 216.648 179.938C216.648 183.167 217.312 185.589 218.641 187.203C219.982 188.805 221.681 189.605 223.738 189.605C225.848 189.605 227.456 188.915 228.562 187.535C229.174 186.793 229.682 185.68 230.086 184.195H236.043C235.522 187.333 234.194 189.885 232.059 191.852ZM266.16 194H258.426L249.539 181.422L246.668 184.371V194H240.75V165.211H246.668V177.066L257.781 165.211H265.555L253.758 177.066L266.16 194Z" fill="#757575"/>
</svg>
