<svg width="530" height="590" viewBox="0 0 530 590" fill="none" xmlns="http://www.w3.org/2000/svg">
<path d="M272.368 506.052L221.784 587.332L2.27376 587.176L81.8184 430.597C96.5476 401.604 108.527 371.294 117.6 340.065L119.624 333.096C132.811 287.708 152.734 244.554 178.729 205.079L285.567 42.8375C289.581 36.7419 295.949 32.5901 303.144 31.3771C319.063 28.6934 333.608 40.8699 333.769 57.0142L333.823 62.4056L368.435 14.4576C372.422 8.93398 378.192 4.95442 384.771 3.19038C403.236 -1.7606 421.474 11.833 422.007 30.9439L422.166 36.647L435.345 18.8895C440.96 11.3227 449.707 6.71501 459.121 6.36424C471.795 5.89198 483.48 13.1796 488.631 24.77L489.201 26.0517C493.322 35.3238 492.965 45.9751 488.232 54.9529L478.564 73.2912L484.625 70.2046C498.249 63.2676 514.908 67.7883 523.153 80.6593C529.468 90.518 529.411 103.167 523.007 112.972L399.9 301.448L467.342 237.385C472.867 232.137 479.867 228.707 487.399 227.559L493.845 226.576C504.642 224.93 515.382 229.864 521.167 239.127C527.385 249.085 526.557 261.902 519.109 270.981L443.378 363.299L410.388 410.689C400.523 424.861 388.871 437.701 375.721 448.89C355.951 465.712 333.107 478.54 308.455 486.661L288.796 493.138C281.977 495.384 276.162 499.955 272.368 506.052Z" fill="#CBCBCB"/>
<path d="M478.564 73.2912L484.625 70.2046C498.249 63.2676 514.908 67.7883 523.153 80.6593V80.6593C529.468 90.518 529.411 103.167 523.007 112.972L399.9 301.448L467.342 237.385C472.867 232.137 479.867 228.707 487.399 227.559L493.845 226.576C504.642 224.93 515.382 229.864 521.167 239.127V239.127C527.385 249.085 526.557 261.902 519.109 270.981L443.378 363.299L410.388 410.689C400.523 424.861 388.871 437.701 375.721 448.89V448.89C355.951 465.712 333.107 478.54 308.455 486.661L288.796 493.138C281.977 495.384 276.162 499.955 272.368 506.052L221.784 587.332L2.27376 587.176L81.8184 430.597C96.5476 401.604 108.527 371.294 117.6 340.065L119.624 333.096C132.811 287.708 152.734 244.554 178.729 205.079L285.567 42.8375C289.581 36.7419 295.949 32.5901 303.144 31.3771V31.3771C319.063 28.6934 333.608 40.8699 333.769 57.0142L333.823 62.4056M478.564 73.2912L360.82 256.019M478.564 73.2912L488.232 54.9529C492.965 45.9751 493.322 35.3238 489.201 26.0517L488.631 24.77C483.48 13.1796 471.795 5.89198 459.121 6.36423V6.36423C449.707 6.715 440.96 11.3227 435.345 18.8895L422.166 36.647M333.823 62.4056L236.932 230.224M333.823 62.4056L368.435 14.4576C372.422 8.93397 378.192 4.95441 384.771 3.19038V3.19038C403.236 -1.7606 421.474 11.833 422.007 30.9439L422.166 36.647M422.166 36.647L305.922 236.574" stroke="#757575" stroke-width="4" stroke-linejoin="round"/>
</svg>
