<svg width="357" height="364" viewBox="0 0 357 364" fill="none" xmlns="http://www.w3.org/2000/svg">
<ellipse cx="45.8509" cy="12.1983" rx="43.8509" ry="10.1983" stroke="#757575" stroke-width="4" stroke-linejoin="round"/>
<ellipse cx="45.8509" cy="215.145" rx="43.8509" ry="10.1983" stroke="#757575" stroke-width="4" stroke-linejoin="round"/>
<path d="M2 204.946C2 199.314 18.6878 194.748 39.2733 194.748" stroke="#757575" stroke-width="4" stroke-linejoin="round" stroke-dasharray="12 12"/>
<path d="M89.7019 204.946C89.7019 199.314 73.0141 194.748 52.4286 194.748" stroke="#757575" stroke-width="4" stroke-linejoin="round" stroke-dasharray="12 12"/>
<ellipse cx="45.8509" cy="252.878" rx="43.8509" ry="10.1983" stroke="#757575" stroke-width="4" stroke-linejoin="round"/>
<ellipse cx="45.8509" cy="290.613" rx="43.8509" ry="10.1983" stroke="#757575" stroke-width="4" stroke-linejoin="round"/>
<ellipse cx="45.8509" cy="328.346" rx="43.8509" ry="10.1983" stroke="#757575" stroke-width="4" stroke-linejoin="round"/>
<path d="M2 11.1784V215.144" stroke="#757575" stroke-width="4" stroke-linejoin="round"/>
<path d="M89.7019 11.1784V215.144" stroke="#757575" stroke-width="4" stroke-linejoin="round"/>
<path d="M89.7019 215.144L67.7765 245.324V355.881" stroke="#757575" stroke-width="4" stroke-linejoin="round"/>
<path d="M2 215.144L23.9254 245.324V355.881" stroke="#757575" stroke-width="4" stroke-linejoin="round"/>
<path d="M52.4293 22.3962L52.4293 54.0897L74.3547 71.3378L52.4293 88.586L74.3547 104.397L52.4293 120.208L74.3547 136.018L52.4293 151.829L74.3547 167.64L52.4293 183.451L52.4293 355.881" stroke="#757575" stroke-width="4" stroke-linejoin="round"/>
<path d="M39.2736 22.3962L39.2736 54.0897L17.3481 71.3378L39.2736 88.586L17.3482 104.397L39.2736 120.208L17.3482 136.018L39.2736 151.829L17.3482 167.64L39.2736 183.451L39.2736 355.881" stroke="#757575" stroke-width="4" stroke-linejoin="round"/>
<path d="M39.2738 342.584C41.4507 342.584 43.4664 340.909 43.4664 338.544C43.4664 336.18 41.4507 334.505 39.2738 334.505C37.097 334.505 35.0813 336.18 35.0813 338.544C35.0813 340.909 37.097 342.584 39.2738 342.584Z" fill="#CBCBCB" stroke="#757575" stroke-width="4" stroke-linejoin="round"/>
<path d="M39.2738 267.116C41.4507 267.116 43.4664 265.441 43.4664 263.076C43.4664 260.712 41.4507 259.037 39.2738 259.037C37.097 259.037 35.0813 260.712 35.0813 263.076C35.0813 265.441 37.097 267.116 39.2738 267.116Z" fill="#CBCBCB" stroke="#757575" stroke-width="4" stroke-linejoin="round"/>
<path d="M39.2738 304.851C41.4507 304.851 43.4664 303.176 43.4664 300.811C43.4664 298.446 41.4507 296.771 39.2738 296.771C37.097 296.771 35.0813 298.446 35.0813 300.811C35.0813 303.176 37.097 304.851 39.2738 304.851Z" fill="#CBCBCB" stroke="#757575" stroke-width="4" stroke-linejoin="round"/>
<path d="M52.4291 342.584C54.606 342.584 56.6217 340.909 56.6217 338.544C56.6217 336.18 54.606 334.505 52.4291 334.505C50.2522 334.505 48.2366 336.18 48.2366 338.544C48.2366 340.909 50.2522 342.584 52.4291 342.584Z" fill="#CBCBCB" stroke="#757575" stroke-width="4" stroke-linejoin="round"/>
<path d="M52.4291 267.116C54.606 267.116 56.6217 265.441 56.6217 263.076C56.6217 260.712 54.606 259.037 52.4291 259.037C50.2522 259.037 48.2366 260.712 48.2366 263.076C48.2366 265.441 50.2522 267.116 52.4291 267.116Z" fill="#CBCBCB" stroke="#757575" stroke-width="4" stroke-linejoin="round"/>
<path d="M52.4291 304.851C54.606 304.851 56.6217 303.176 56.6217 300.811C56.6217 298.446 54.606 296.771 52.4291 296.771C50.2522 296.771 48.2366 298.446 48.2366 300.811C48.2366 303.176 50.2522 304.851 52.4291 304.851Z" fill="#CBCBCB" stroke="#757575" stroke-width="4" stroke-linejoin="round"/>
<ellipse cx="177.403" cy="12.1983" rx="43.8509" ry="10.1983" stroke="#757575" stroke-width="4" stroke-linejoin="round"/>
<ellipse cx="177.403" cy="215.145" rx="43.8509" ry="10.1983" stroke="#757575" stroke-width="4" stroke-linejoin="round"/>
<path d="M133.552 204.946C133.552 199.314 150.24 194.748 170.825 194.748" stroke="#757575" stroke-width="4" stroke-linejoin="round" stroke-dasharray="12 12"/>
<path d="M221.254 204.946C221.254 199.314 204.566 194.748 183.981 194.748" stroke="#757575" stroke-width="4" stroke-linejoin="round" stroke-dasharray="12 12"/>
<ellipse cx="177.403" cy="252.878" rx="43.8509" ry="10.1983" stroke="#757575" stroke-width="4" stroke-linejoin="round"/>
<ellipse cx="177.403" cy="290.613" rx="43.8509" ry="10.1983" stroke="#757575" stroke-width="4" stroke-linejoin="round"/>
<ellipse cx="177.403" cy="328.346" rx="43.8509" ry="10.1983" stroke="#757575" stroke-width="4" stroke-linejoin="round"/>
<path d="M133.552 11.1784V215.144" stroke="#757575" stroke-width="4" stroke-linejoin="round"/>
<path d="M221.254 11.1784V215.144" stroke="#757575" stroke-width="4" stroke-linejoin="round"/>
<path d="M221.254 215.144L199.328 245.324V355.881" stroke="#757575" stroke-width="4" stroke-linejoin="round"/>
<path d="M133.552 215.144L155.477 245.324V355.881" stroke="#757575" stroke-width="4" stroke-linejoin="round"/>
<path d="M183.981 22.3962L183.981 54.0897L205.907 71.3378L183.981 88.586L205.907 104.397L183.981 120.208L205.907 136.018L183.981 151.829L205.907 167.64L183.981 183.451L183.981 355.881" stroke="#757575" stroke-width="4" stroke-linejoin="round"/>
<path d="M170.826 22.3962L170.826 54.0897L148.9 71.3378L170.826 88.586L148.9 104.397L170.826 120.208L148.9 136.018L170.826 151.829L148.9 167.64L170.826 183.451L170.826 355.881" stroke="#757575" stroke-width="4" stroke-linejoin="round"/>
<path d="M170.826 342.584C173.003 342.584 175.019 340.909 175.019 338.544C175.019 336.18 173.003 334.505 170.826 334.505C168.649 334.505 166.634 336.18 166.634 338.544C166.634 340.909 168.649 342.584 170.826 342.584Z" fill="#CBCBCB" stroke="#757575" stroke-width="4" stroke-linejoin="round"/>
<path d="M170.826 267.116C173.003 267.116 175.019 265.441 175.019 263.076C175.019 260.712 173.003 259.037 170.826 259.037C168.649 259.037 166.634 260.712 166.634 263.076C166.634 265.441 168.649 267.116 170.826 267.116Z" fill="#CBCBCB" stroke="#757575" stroke-width="4" stroke-linejoin="round"/>
<path d="M170.826 304.851C173.003 304.851 175.019 303.176 175.019 300.811C175.019 298.446 173.003 296.771 170.826 296.771C168.649 296.771 166.634 298.446 166.634 300.811C166.634 303.176 168.649 304.851 170.826 304.851Z" fill="#CBCBCB" stroke="#757575" stroke-width="4" stroke-linejoin="round"/>
<path d="M183.981 342.584C186.158 342.584 188.174 340.909 188.174 338.544C188.174 336.18 186.158 334.505 183.981 334.505C181.804 334.505 179.789 336.18 179.789 338.544C179.789 340.909 181.804 342.584 183.981 342.584Z" fill="#CBCBCB" stroke="#757575" stroke-width="4" stroke-linejoin="round"/>
<path d="M183.981 267.116C186.158 267.116 188.174 265.441 188.174 263.076C188.174 260.712 186.158 259.037 183.981 259.037C181.804 259.037 179.789 260.712 179.789 263.076C179.789 265.441 181.804 267.116 183.981 267.116Z" fill="#CBCBCB" stroke="#757575" stroke-width="4" stroke-linejoin="round"/>
<path d="M183.981 304.851C186.158 304.851 188.174 303.176 188.174 300.811C188.174 298.446 186.158 296.771 183.981 296.771C181.804 296.771 179.789 298.446 179.789 300.811C179.789 303.176 181.804 304.851 183.981 304.851Z" fill="#CBCBCB" stroke="#757575" stroke-width="4" stroke-linejoin="round"/>
<ellipse cx="311.15" cy="12.1983" rx="43.8509" ry="10.1983" stroke="#757575" stroke-width="4" stroke-linejoin="round"/>
<ellipse cx="311.15" cy="215.145" rx="43.8509" ry="10.1983" stroke="#757575" stroke-width="4" stroke-linejoin="round"/>
<path d="M267.299 204.946C267.299 199.314 283.987 194.748 304.572 194.748" stroke="#757575" stroke-width="4" stroke-linejoin="round" stroke-dasharray="12 12"/>
<path d="M355.001 204.946C355.001 199.314 338.313 194.748 317.728 194.748" stroke="#757575" stroke-width="4" stroke-linejoin="round" stroke-dasharray="12 12"/>
<ellipse cx="311.15" cy="252.878" rx="43.8509" ry="10.1983" stroke="#757575" stroke-width="4" stroke-linejoin="round"/>
<ellipse cx="311.15" cy="290.613" rx="43.8509" ry="10.1983" stroke="#757575" stroke-width="4" stroke-linejoin="round"/>
<ellipse cx="311.15" cy="328.346" rx="43.8509" ry="10.1983" stroke="#757575" stroke-width="4" stroke-linejoin="round"/>
<path d="M267.299 11.1784V215.144" stroke="#757575" stroke-width="4" stroke-linejoin="round"/>
<path d="M355.001 11.1784V215.144" stroke="#757575" stroke-width="4" stroke-linejoin="round"/>
<path d="M355.001 215.144L333.076 245.324V355.881" stroke="#757575" stroke-width="4" stroke-linejoin="round"/>
<path d="M267.299 215.144L289.225 245.324V355.881" stroke="#757575" stroke-width="4" stroke-linejoin="round"/>
<path d="M317.728 22.3962L317.728 54.0897L339.654 71.3378L317.728 88.586L339.654 104.397L317.728 120.208L339.654 136.018L317.728 151.829L339.654 167.64L317.728 183.451L317.728 355.881" stroke="#757575" stroke-width="4" stroke-linejoin="round"/>
<path d="M304.573 22.3962L304.573 54.0897L282.647 71.3378L304.573 88.586L282.647 104.397L304.573 120.208L282.647 136.018L304.573 151.829L282.647 167.64L304.573 183.451L304.573 355.881" stroke="#757575" stroke-width="4" stroke-linejoin="round"/>
<path d="M304.572 342.584C306.749 342.584 308.764 340.909 308.764 338.544C308.764 336.18 306.749 334.505 304.572 334.505C302.395 334.505 300.379 336.18 300.379 338.544C300.379 340.909 302.395 342.584 304.572 342.584Z" fill="#CBCBCB" stroke="#757575" stroke-width="4" stroke-linejoin="round"/>
<path d="M304.572 267.116C306.749 267.116 308.764 265.441 308.764 263.076C308.764 260.712 306.749 259.037 304.572 259.037C302.395 259.037 300.379 260.712 300.379 263.076C300.379 265.441 302.395 267.116 304.572 267.116Z" fill="#CBCBCB" stroke="#757575" stroke-width="4" stroke-linejoin="round"/>
<path d="M304.572 304.851C306.749 304.851 308.764 303.176 308.764 300.811C308.764 298.446 306.749 296.771 304.572 296.771C302.395 296.771 300.379 298.446 300.379 300.811C300.379 303.176 302.395 304.851 304.572 304.851Z" fill="#CBCBCB" stroke="#757575" stroke-width="4" stroke-linejoin="round"/>
<path d="M317.728 342.584C319.905 342.584 321.921 340.909 321.921 338.544C321.921 336.18 319.905 334.505 317.728 334.505C315.551 334.505 313.536 336.18 313.536 338.544C313.536 340.909 315.551 342.584 317.728 342.584Z" fill="#CBCBCB" stroke="#757575" stroke-width="4" stroke-linejoin="round"/>
<path d="M317.728 267.116C319.905 267.116 321.921 265.441 321.921 263.076C321.921 260.712 319.905 259.037 317.728 259.037C315.551 259.037 313.536 260.712 313.536 263.076C313.536 265.441 315.551 267.116 317.728 267.116Z" fill="#CBCBCB" stroke="#757575" stroke-width="4" stroke-linejoin="round"/>
<path d="M317.728 304.851C319.905 304.851 321.921 303.176 321.921 300.811C321.921 298.446 319.905 296.771 317.728 296.771C315.551 296.771 313.536 298.446 313.536 300.811C313.536 303.176 315.551 304.851 317.728 304.851Z" fill="#CBCBCB" stroke="#757575" stroke-width="4" stroke-linejoin="round"/>
<path d="M67.7766 353.841L83.1533 353.841L91.5216 362L99.8899 353.841L107.561 362L115.232 353.841L122.903 362L130.574 353.841L138.245 362L145.915 353.841H155.478" stroke="#757575" stroke-width="4" stroke-linejoin="round"/>
<path d="M199.33 353.841L214.707 353.841L223.075 362L231.443 353.841L239.114 362L246.785 353.841L254.456 362L262.127 353.841L269.798 362L277.469 353.841H287.032" stroke="#757575" stroke-width="4" stroke-linejoin="round"/>
</svg>
