<svg width="373" height="385" viewBox="0 0 373 385" fill="none" xmlns="http://www.w3.org/2000/svg">
<g filter="url(#filter0_f_373_2189)">
<ellipse cx="53.8509" cy="20.3399" rx="43.8509" ry="10.3399" stroke="white" stroke-width="12" stroke-linejoin="round"/>
<ellipse cx="53.8509" cy="226.105" rx="43.8509" ry="10.3399" stroke="white" stroke-width="12" stroke-linejoin="round"/>
<path d="M10 215.765C10 210.054 26.6878 205.425 47.2733 205.425" stroke="white" stroke-width="12" stroke-linejoin="round" stroke-dasharray="12 12"/>
<path d="M97.7021 215.765C97.7021 210.054 81.0143 205.425 60.4289 205.425" stroke="white" stroke-width="12" stroke-linejoin="round" stroke-dasharray="12 12"/>
<ellipse cx="53.8509" cy="264.363" rx="43.8509" ry="10.3399" stroke="white" stroke-width="12" stroke-linejoin="round"/>
<ellipse cx="53.8509" cy="302.621" rx="43.8509" ry="10.3399" stroke="white" stroke-width="12" stroke-linejoin="round"/>
<ellipse cx="53.8509" cy="340.878" rx="43.8509" ry="10.3399" stroke="white" stroke-width="12" stroke-linejoin="round"/>
<path d="M10 19.3059V226.105" stroke="white" stroke-width="12" stroke-linejoin="round"/>
<path d="M97.7021 19.3059V226.105" stroke="white" stroke-width="12" stroke-linejoin="round"/>
<path d="M97.7021 226.105L75.7767 256.704V368.796" stroke="white" stroke-width="12" stroke-linejoin="round"/>
<path d="M10 226.105L31.9254 256.704V368.796" stroke="white" stroke-width="12" stroke-linejoin="round"/>
<path d="M60.4291 30.6795L60.4291 62.8131L82.3545 80.3008L60.4291 97.7885L82.3545 113.819L60.4291 129.849L82.3545 145.88L60.4291 161.91L82.3545 177.94L60.4291 193.971L60.4291 368.796" stroke="white" stroke-width="12" stroke-linejoin="round"/>
<path d="M47.2736 30.6795L47.2736 62.8131L25.3481 80.3008L47.2736 97.7885L25.3482 113.819L47.2736 129.849L25.3482 145.88L47.2736 161.91L25.3482 177.94L47.2736 193.971L47.2736 368.796" stroke="white" stroke-width="12" stroke-linejoin="round"/>
<path d="M43.4661 351.219C43.4661 348.721 45.5062 347.287 47.2736 347.287C49.041 347.287 51.0811 348.721 51.0811 351.219C51.0811 353.716 49.041 355.151 47.2736 355.151C45.5062 355.151 43.4661 353.716 43.4661 351.219ZM47.2736 359.287C51.4628 359.287 55.4661 356 55.4661 351.219C55.4661 346.437 51.4628 343.151 47.2736 343.151C43.0844 343.151 39.0811 346.437 39.0811 351.219C39.0811 356 43.0844 359.287 47.2736 359.287ZM49.4661 351.219C49.4661 352.361 48.4845 353.287 47.2736 353.287C46.0627 353.287 45.0811 352.361 45.0811 351.219C45.0811 350.077 46.0627 349.151 47.2736 349.151C48.4845 349.151 49.4661 350.077 49.4661 351.219Z" fill="white" stroke="white" stroke-width="12" stroke-linejoin="round"/>
<path d="M43.4661 274.702C43.4661 272.205 45.5062 270.77 47.2736 270.77C49.041 270.77 51.0811 272.205 51.0811 274.702C51.0811 277.2 49.041 278.634 47.2736 278.634C45.5062 278.634 43.4661 277.2 43.4661 274.702ZM47.2736 282.77C51.4628 282.77 55.4661 279.484 55.4661 274.702C55.4661 269.921 51.4628 266.634 47.2736 266.634C43.0844 266.634 39.0811 269.921 39.0811 274.702C39.0811 279.484 43.0844 282.77 47.2736 282.77ZM49.4661 274.702C49.4661 275.845 48.4845 276.77 47.2736 276.77C46.0627 276.77 45.0811 275.845 45.0811 274.702C45.0811 273.56 46.0627 272.634 47.2736 272.634C48.4845 272.634 49.4661 273.56 49.4661 274.702Z" fill="white" stroke="white" stroke-width="12" stroke-linejoin="round"/>
<path d="M43.4661 312.961C43.4661 310.464 45.5062 309.029 47.2736 309.029C49.041 309.029 51.0811 310.464 51.0811 312.961C51.0811 315.458 49.041 316.893 47.2736 316.893C45.5062 316.893 43.4661 315.458 43.4661 312.961ZM47.2736 321.029C51.4628 321.029 55.4661 317.743 55.4661 312.961C55.4661 308.179 51.4628 304.893 47.2736 304.893C43.0844 304.893 39.0811 308.179 39.0811 312.961C39.0811 317.743 43.0844 321.029 47.2736 321.029ZM49.4661 312.961C49.4661 314.103 48.4845 315.029 47.2736 315.029C46.0627 315.029 45.0811 314.103 45.0811 312.961C45.0811 311.819 46.0627 310.893 47.2736 310.893C48.4845 310.893 49.4661 311.819 49.4661 312.961Z" fill="white" stroke="white" stroke-width="12" stroke-linejoin="round"/>
<path d="M56.6214 351.219C56.6214 348.721 58.6615 347.287 60.4289 347.287C62.1962 347.287 64.2363 348.721 64.2363 351.219C64.2363 353.716 62.1962 355.151 60.4289 355.151C58.6615 355.151 56.6214 353.716 56.6214 351.219ZM60.4289 359.287C64.618 359.287 68.6214 356 68.6214 351.219C68.6214 346.437 64.618 343.151 60.4289 343.151C56.2397 343.151 52.2363 346.437 52.2363 351.219C52.2363 356 56.2397 359.287 60.4289 359.287ZM62.6214 351.219C62.6214 352.361 61.6398 353.287 60.4289 353.287C59.218 353.287 58.2363 352.361 58.2363 351.219C58.2363 350.077 59.218 349.151 60.4289 349.151C61.6398 349.151 62.6214 350.077 62.6214 351.219Z" fill="white" stroke="white" stroke-width="12" stroke-linejoin="round"/>
<path d="M56.6214 274.702C56.6214 272.205 58.6615 270.77 60.4289 270.77C62.1962 270.77 64.2363 272.205 64.2363 274.702C64.2363 277.2 62.1962 278.634 60.4289 278.634C58.6615 278.634 56.6214 277.2 56.6214 274.702ZM60.4289 282.77C64.618 282.77 68.6214 279.484 68.6214 274.702C68.6214 269.921 64.618 266.634 60.4289 266.634C56.2397 266.634 52.2363 269.921 52.2363 274.702C52.2363 279.484 56.2397 282.77 60.4289 282.77ZM62.6214 274.702C62.6214 275.845 61.6398 276.77 60.4289 276.77C59.218 276.77 58.2363 275.845 58.2363 274.702C58.2363 273.56 59.218 272.634 60.4289 272.634C61.6398 272.634 62.6214 273.56 62.6214 274.702Z" fill="white" stroke="white" stroke-width="12" stroke-linejoin="round"/>
<path d="M56.6214 312.961C56.6214 310.464 58.6615 309.029 60.4289 309.029C62.1962 309.029 64.2363 310.464 64.2363 312.961C64.2363 315.458 62.1962 316.893 60.4289 316.893C58.6615 316.893 56.6214 315.458 56.6214 312.961ZM60.4289 321.029C64.618 321.029 68.6214 317.743 68.6214 312.961C68.6214 308.179 64.618 304.893 60.4289 304.893C56.2397 304.893 52.2363 308.179 52.2363 312.961C52.2363 317.743 56.2397 321.029 60.4289 321.029ZM62.6214 312.961C62.6214 314.103 61.6398 315.029 60.4289 315.029C59.218 315.029 58.2363 314.103 58.2363 312.961C58.2363 311.819 59.218 310.893 60.4289 310.893C61.6398 310.893 62.6214 311.819 62.6214 312.961Z" fill="white" stroke="white" stroke-width="12" stroke-linejoin="round"/>
<ellipse cx="185.403" cy="20.3399" rx="43.8509" ry="10.3399" stroke="white" stroke-width="12" stroke-linejoin="round"/>
<ellipse cx="185.403" cy="226.105" rx="43.8509" ry="10.3399" stroke="white" stroke-width="12" stroke-linejoin="round"/>
<path d="M141.552 215.765C141.552 210.054 158.24 205.425 178.826 205.425" stroke="white" stroke-width="12" stroke-linejoin="round" stroke-dasharray="12 12"/>
<path d="M229.254 215.765C229.254 210.054 212.566 205.425 191.981 205.425" stroke="white" stroke-width="12" stroke-linejoin="round" stroke-dasharray="12 12"/>
<ellipse cx="185.403" cy="264.363" rx="43.8509" ry="10.3399" stroke="white" stroke-width="12" stroke-linejoin="round"/>
<ellipse cx="185.403" cy="302.621" rx="43.8509" ry="10.3399" stroke="white" stroke-width="12" stroke-linejoin="round"/>
<ellipse cx="185.403" cy="340.878" rx="43.8509" ry="10.3399" stroke="white" stroke-width="12" stroke-linejoin="round"/>
<path d="M141.552 19.3059V226.105" stroke="white" stroke-width="12" stroke-linejoin="round"/>
<path d="M229.254 19.3059V226.105" stroke="white" stroke-width="12" stroke-linejoin="round"/>
<path d="M229.254 226.105L207.328 256.704V368.796" stroke="white" stroke-width="12" stroke-linejoin="round"/>
<path d="M141.552 226.105L163.478 256.704V368.796" stroke="white" stroke-width="12" stroke-linejoin="round"/>
<path d="M191.982 30.6795L191.982 62.8131L213.907 80.3008L191.982 97.7885L213.907 113.819L191.982 129.849L213.907 145.88L191.982 161.91L213.907 177.94L191.982 193.971L191.982 368.796" stroke="white" stroke-width="12" stroke-linejoin="round"/>
<path d="M178.826 30.6795L178.826 62.8131L156.9 80.3008L178.826 97.7885L156.9 113.819L178.826 129.849L156.9 145.88L178.826 161.91L156.9 177.94L178.826 193.971L178.826 368.796" stroke="white" stroke-width="12" stroke-linejoin="round"/>
<path d="M175.019 351.219C175.019 348.721 177.059 347.287 178.826 347.287C180.594 347.287 182.634 348.721 182.634 351.219C182.634 353.716 180.594 355.151 178.826 355.151C177.059 355.151 175.019 353.716 175.019 351.219ZM178.826 359.287C183.016 359.287 187.019 356 187.019 351.219C187.019 346.437 183.016 343.151 178.826 343.151C174.637 343.151 170.634 346.437 170.634 351.219C170.634 356 174.637 359.287 178.826 359.287ZM181.019 351.219C181.019 352.361 180.037 353.287 178.826 353.287C177.615 353.287 176.634 352.361 176.634 351.219C176.634 350.077 177.615 349.151 178.826 349.151C180.037 349.151 181.019 350.077 181.019 351.219Z" fill="white" stroke="white" stroke-width="12" stroke-linejoin="round"/>
<path d="M175.019 274.702C175.019 272.205 177.059 270.77 178.826 270.77C180.594 270.77 182.634 272.205 182.634 274.702C182.634 277.2 180.594 278.634 178.826 278.634C177.059 278.634 175.019 277.2 175.019 274.702ZM178.826 282.77C183.016 282.77 187.019 279.484 187.019 274.702C187.019 269.921 183.016 266.634 178.826 266.634C174.637 266.634 170.634 269.921 170.634 274.702C170.634 279.484 174.637 282.77 178.826 282.77ZM181.019 274.702C181.019 275.845 180.037 276.77 178.826 276.77C177.615 276.77 176.634 275.845 176.634 274.702C176.634 273.56 177.615 272.634 178.826 272.634C180.037 272.634 181.019 273.56 181.019 274.702Z" fill="white" stroke="white" stroke-width="12" stroke-linejoin="round"/>
<path d="M175.019 312.961C175.019 310.464 177.059 309.029 178.826 309.029C180.594 309.029 182.634 310.464 182.634 312.961C182.634 315.458 180.594 316.893 178.826 316.893C177.059 316.893 175.019 315.458 175.019 312.961ZM178.826 321.029C183.016 321.029 187.019 317.743 187.019 312.961C187.019 308.179 183.016 304.893 178.826 304.893C174.637 304.893 170.634 308.179 170.634 312.961C170.634 317.743 174.637 321.029 178.826 321.029ZM181.019 312.961C181.019 314.103 180.037 315.029 178.826 315.029C177.615 315.029 176.634 314.103 176.634 312.961C176.634 311.819 177.615 310.893 178.826 310.893C180.037 310.893 181.019 311.819 181.019 312.961Z" fill="white" stroke="white" stroke-width="12" stroke-linejoin="round"/>
<path d="M188.174 351.219C188.174 348.721 190.214 347.287 191.982 347.287C193.749 347.287 195.789 348.721 195.789 351.219C195.789 353.716 193.749 355.151 191.982 355.151C190.214 355.151 188.174 353.716 188.174 351.219ZM191.982 359.287C196.171 359.287 200.174 356 200.174 351.219C200.174 346.437 196.171 343.151 191.982 343.151C187.792 343.151 183.789 346.437 183.789 351.219C183.789 356 187.792 359.287 191.982 359.287ZM194.174 351.219C194.174 352.361 193.193 353.287 191.982 353.287C190.771 353.287 189.789 352.361 189.789 351.219C189.789 350.077 190.771 349.151 191.982 349.151C193.193 349.151 194.174 350.077 194.174 351.219Z" fill="white" stroke="white" stroke-width="12" stroke-linejoin="round"/>
<path d="M188.174 274.702C188.174 272.205 190.214 270.77 191.982 270.77C193.749 270.77 195.789 272.205 195.789 274.702C195.789 277.2 193.749 278.634 191.982 278.634C190.214 278.634 188.174 277.2 188.174 274.702ZM191.982 282.77C196.171 282.77 200.174 279.484 200.174 274.702C200.174 269.921 196.171 266.634 191.982 266.634C187.792 266.634 183.789 269.921 183.789 274.702C183.789 279.484 187.792 282.77 191.982 282.77ZM194.174 274.702C194.174 275.845 193.193 276.77 191.982 276.77C190.771 276.77 189.789 275.845 189.789 274.702C189.789 273.56 190.771 272.634 191.982 272.634C193.193 272.634 194.174 273.56 194.174 274.702Z" fill="white" stroke="white" stroke-width="12" stroke-linejoin="round"/>
<path d="M188.174 312.961C188.174 310.464 190.214 309.029 191.982 309.029C193.749 309.029 195.789 310.464 195.789 312.961C195.789 315.458 193.749 316.893 191.982 316.893C190.214 316.893 188.174 315.458 188.174 312.961ZM191.982 321.029C196.171 321.029 200.174 317.743 200.174 312.961C200.174 308.179 196.171 304.893 191.982 304.893C187.792 304.893 183.789 308.179 183.789 312.961C183.789 317.743 187.792 321.029 191.982 321.029ZM194.174 312.961C194.174 314.103 193.193 315.029 191.982 315.029C190.771 315.029 189.789 314.103 189.789 312.961C189.789 311.819 190.771 310.893 191.982 310.893C193.193 310.893 194.174 311.819 194.174 312.961Z" fill="white" stroke="white" stroke-width="12" stroke-linejoin="round"/>
<ellipse cx="319.15" cy="20.3399" rx="43.8509" ry="10.3399" stroke="white" stroke-width="12" stroke-linejoin="round"/>
<ellipse cx="319.15" cy="226.105" rx="43.8509" ry="10.3399" stroke="white" stroke-width="12" stroke-linejoin="round"/>
<path d="M275.299 215.765C275.299 210.054 291.987 205.425 312.573 205.425" stroke="white" stroke-width="12" stroke-linejoin="round" stroke-dasharray="12 12"/>
<path d="M363.001 215.765C363.001 210.054 346.313 205.425 325.728 205.425" stroke="white" stroke-width="12" stroke-linejoin="round" stroke-dasharray="12 12"/>
<ellipse cx="319.15" cy="264.363" rx="43.8509" ry="10.3399" stroke="white" stroke-width="12" stroke-linejoin="round"/>
<ellipse cx="319.15" cy="302.621" rx="43.8509" ry="10.3399" stroke="white" stroke-width="12" stroke-linejoin="round"/>
<ellipse cx="319.15" cy="340.878" rx="43.8509" ry="10.3399" stroke="white" stroke-width="12" stroke-linejoin="round"/>
<path d="M275.299 19.3059V226.105" stroke="white" stroke-width="12" stroke-linejoin="round"/>
<path d="M363.001 19.3059V226.105" stroke="white" stroke-width="12" stroke-linejoin="round"/>
<path d="M363.001 226.105L341.076 256.704V368.796" stroke="white" stroke-width="12" stroke-linejoin="round"/>
<path d="M275.299 226.105L297.225 256.704V368.796" stroke="white" stroke-width="12" stroke-linejoin="round"/>
<path d="M325.729 30.6795L325.729 62.8131L347.654 80.3008L325.729 97.7885L347.654 113.819L325.729 129.849L347.654 145.88L325.729 161.91L347.654 177.94L325.729 193.971L325.729 368.796" stroke="white" stroke-width="12" stroke-linejoin="round"/>
<path d="M312.573 30.6795L312.573 62.8131L290.647 80.3008L312.573 97.7885L290.647 113.819L312.573 129.849L290.647 145.88L312.573 161.91L290.647 177.94L312.573 193.971L312.573 368.796" stroke="white" stroke-width="12" stroke-linejoin="round"/>
<path d="M308.765 351.219C308.765 348.721 310.805 347.287 312.572 347.287C314.34 347.287 316.38 348.721 316.38 351.219C316.38 353.716 314.34 355.151 312.572 355.151C310.805 355.151 308.765 353.716 308.765 351.219ZM312.572 359.287C316.762 359.287 320.765 356 320.765 351.219C320.765 346.437 316.762 343.151 312.572 343.151C308.383 343.151 304.38 346.437 304.38 351.219C304.38 356 308.383 359.287 312.572 359.287ZM314.765 351.219C314.765 352.361 313.783 353.287 312.572 353.287C311.362 353.287 310.38 352.361 310.38 351.219C310.38 350.077 311.362 349.151 312.572 349.151C313.783 349.151 314.765 350.077 314.765 351.219Z" fill="white" stroke="white" stroke-width="12" stroke-linejoin="round"/>
<path d="M308.765 274.702C308.765 272.205 310.805 270.77 312.572 270.77C314.34 270.77 316.38 272.205 316.38 274.702C316.38 277.2 314.34 278.634 312.572 278.634C310.805 278.634 308.765 277.2 308.765 274.702ZM312.572 282.77C316.762 282.77 320.765 279.484 320.765 274.702C320.765 269.921 316.762 266.634 312.572 266.634C308.383 266.634 304.38 269.921 304.38 274.702C304.38 279.484 308.383 282.77 312.572 282.77ZM314.765 274.702C314.765 275.845 313.783 276.77 312.572 276.77C311.362 276.77 310.38 275.845 310.38 274.702C310.38 273.56 311.362 272.634 312.572 272.634C313.783 272.634 314.765 273.56 314.765 274.702Z" fill="white" stroke="white" stroke-width="12" stroke-linejoin="round"/>
<path d="M308.765 312.961C308.765 310.464 310.805 309.029 312.572 309.029C314.34 309.029 316.38 310.464 316.38 312.961C316.38 315.458 314.34 316.893 312.572 316.893C310.805 316.893 308.765 315.458 308.765 312.961ZM312.572 321.029C316.762 321.029 320.765 317.743 320.765 312.961C320.765 308.179 316.762 304.893 312.572 304.893C308.383 304.893 304.38 308.179 304.38 312.961C304.38 317.743 308.383 321.029 312.572 321.029ZM314.765 312.961C314.765 314.103 313.783 315.029 312.572 315.029C311.362 315.029 310.38 314.103 310.38 312.961C310.38 311.819 311.362 310.893 312.572 310.893C313.783 310.893 314.765 311.819 314.765 312.961Z" fill="white" stroke="white" stroke-width="12" stroke-linejoin="round"/>
<path d="M321.921 351.219C321.921 348.721 323.961 347.287 325.729 347.287C327.496 347.287 329.536 348.721 329.536 351.219C329.536 353.716 327.496 355.151 325.729 355.151C323.961 355.151 321.921 353.716 321.921 351.219ZM325.729 359.287C329.918 359.287 333.921 356 333.921 351.219C333.921 346.437 329.918 343.151 325.729 343.151C321.54 343.151 317.536 346.437 317.536 351.219C317.536 356 321.54 359.287 325.729 359.287ZM327.921 351.219C327.921 352.361 326.94 353.287 325.729 353.287C324.518 353.287 323.536 352.361 323.536 351.219C323.536 350.077 324.518 349.151 325.729 349.151C326.94 349.151 327.921 350.077 327.921 351.219Z" fill="white" stroke="white" stroke-width="12" stroke-linejoin="round"/>
<path d="M321.921 274.702C321.921 272.205 323.961 270.77 325.729 270.77C327.496 270.77 329.536 272.205 329.536 274.702C329.536 277.2 327.496 278.634 325.729 278.634C323.961 278.634 321.921 277.2 321.921 274.702ZM325.729 282.77C329.918 282.77 333.921 279.484 333.921 274.702C333.921 269.921 329.918 266.634 325.729 266.634C321.54 266.634 317.536 269.921 317.536 274.702C317.536 279.484 321.54 282.77 325.729 282.77ZM327.921 274.702C327.921 275.845 326.94 276.77 325.729 276.77C324.518 276.77 323.536 275.845 323.536 274.702C323.536 273.56 324.518 272.634 325.729 272.634C326.94 272.634 327.921 273.56 327.921 274.702Z" fill="white" stroke="white" stroke-width="12" stroke-linejoin="round"/>
<path d="M321.921 312.961C321.921 310.464 323.961 309.029 325.729 309.029C327.496 309.029 329.536 310.464 329.536 312.961C329.536 315.458 327.496 316.893 325.729 316.893C323.961 316.893 321.921 315.458 321.921 312.961ZM325.729 321.029C329.918 321.029 333.921 317.743 333.921 312.961C333.921 308.179 329.918 304.893 325.729 304.893C321.54 304.893 317.536 308.179 317.536 312.961C317.536 317.743 321.54 321.029 325.729 321.029ZM327.921 312.961C327.921 314.103 326.94 315.029 325.729 315.029C324.518 315.029 323.536 314.103 323.536 312.961C323.536 311.819 324.518 310.893 325.729 310.893C326.94 310.893 327.921 311.819 327.921 312.961Z" fill="white" stroke="white" stroke-width="12" stroke-linejoin="round"/>
<path d="M75.7764 366.728L91.1531 366.728L99.5214 375L107.89 366.728L115.561 375L123.232 366.728L130.902 375L138.573 366.728L146.244 375L153.915 366.728H163.478" stroke="white" stroke-width="12" stroke-linejoin="round"/>
<path d="M207.33 366.728L222.707 366.728L231.075 375L239.443 366.728L247.114 375L254.785 366.728L262.456 375L270.127 366.728L277.798 375L285.469 366.728H295.032" stroke="white" stroke-width="12" stroke-linejoin="round"/>
</g>
<defs>
<filter id="filter0_f_373_2189" x="0" y="0" width="373.001" height="385" filterUnits="userSpaceOnUse" color-interpolation-filters="sRGB">
<feFlood flood-opacity="0" result="BackgroundImageFix"/>
<feBlend mode="normal" in="SourceGraphic" in2="BackgroundImageFix" result="shape"/>
<feGaussianBlur stdDeviation="2" result="effect1_foregroundBlur_373_2189"/>
</filter>
</defs>
</svg>
