<svg width="373" height="380" viewBox="0 0 373 380" fill="none" xmlns="http://www.w3.org/2000/svg">
<g filter="url(#filter0_f_569_76)">
<ellipse cx="53.8509" cy="20.1983" rx="43.8509" ry="10.1983" stroke="white" stroke-width="12" stroke-linejoin="round"/>
<ellipse cx="53.8509" cy="223.145" rx="43.8509" ry="10.1983" stroke="white" stroke-width="12" stroke-linejoin="round"/>
<path d="M10 212.946C10 207.314 26.6878 202.748 47.2733 202.748" stroke="white" stroke-width="12" stroke-linejoin="round" stroke-dasharray="12 12"/>
<path d="M97.7019 212.946C97.7019 207.314 81.0141 202.748 60.4286 202.748" stroke="white" stroke-width="12" stroke-linejoin="round" stroke-dasharray="12 12"/>
<ellipse cx="53.8509" cy="260.878" rx="43.8509" ry="10.1983" stroke="white" stroke-width="12" stroke-linejoin="round"/>
<ellipse cx="53.8509" cy="298.613" rx="43.8509" ry="10.1983" stroke="white" stroke-width="12" stroke-linejoin="round"/>
<ellipse cx="53.8509" cy="336.346" rx="43.8509" ry="10.1983" stroke="white" stroke-width="12" stroke-linejoin="round"/>
<path d="M10 19.1784V223.144" stroke="white" stroke-width="12" stroke-linejoin="round"/>
<path d="M97.7019 19.1784V223.144" stroke="white" stroke-width="12" stroke-linejoin="round"/>
<path d="M97.7019 223.144L75.7765 253.324V363.881" stroke="white" stroke-width="12" stroke-linejoin="round"/>
<path d="M10 223.144L31.9254 253.324V363.881" stroke="white" stroke-width="12" stroke-linejoin="round"/>
<path d="M60.4293 30.3962L60.4293 62.0897L82.3547 79.3378L60.4293 96.586L82.3547 112.397L60.4293 128.208L82.3547 144.018L60.4293 159.829L82.3547 175.64L60.4293 191.451L60.4293 363.881" stroke="white" stroke-width="12" stroke-linejoin="round"/>
<path d="M47.2736 30.3962L47.2736 62.0897L25.3481 79.3378L47.2736 96.586L25.3482 112.397L47.2736 128.208L25.3482 144.018L47.2736 159.829L25.3482 175.64L47.2736 191.451L47.2736 363.881" stroke="white" stroke-width="12" stroke-linejoin="round"/>
<path d="M43.4664 346.544C43.4664 343.956 45.5868 342.584 47.2738 342.584C48.9608 342.584 51.0813 343.956 51.0813 346.544C51.0813 349.133 48.9608 350.505 47.2738 350.505C45.5868 350.505 43.4664 349.133 43.4664 346.544ZM47.2738 354.584C51.3827 354.584 55.4664 351.386 55.4664 346.544C55.4664 341.703 51.3827 338.505 47.2738 338.505C43.165 338.505 39.0813 341.703 39.0813 346.544C39.0813 351.386 43.165 354.584 47.2738 354.584ZM49.4664 346.544C49.4664 347.671 48.4848 348.584 47.2738 348.584C46.0629 348.584 45.0813 347.671 45.0813 346.544C45.0813 345.418 46.0629 344.505 47.2738 344.505C48.4848 344.505 49.4664 345.418 49.4664 346.544Z" stroke="white" stroke-width="12" stroke-linejoin="round"/>
<path d="M43.4664 271.076C43.4664 268.488 45.5868 267.116 47.2738 267.116C48.9608 267.116 51.0813 268.488 51.0813 271.076C51.0813 273.665 48.9608 275.037 47.2738 275.037C45.5868 275.037 43.4664 273.665 43.4664 271.076ZM47.2738 279.116C51.3827 279.116 55.4664 275.918 55.4664 271.076C55.4664 266.235 51.3827 263.037 47.2738 263.037C43.165 263.037 39.0813 266.235 39.0813 271.076C39.0813 275.918 43.165 279.116 47.2738 279.116ZM49.4664 271.076C49.4664 272.203 48.4848 273.116 47.2738 273.116C46.0629 273.116 45.0813 272.203 45.0813 271.076C45.0813 269.95 46.0629 269.037 47.2738 269.037C48.4848 269.037 49.4664 269.95 49.4664 271.076Z" stroke="white" stroke-width="12" stroke-linejoin="round"/>
<path d="M43.4664 308.811C43.4664 306.223 45.5868 304.851 47.2738 304.851C48.9608 304.851 51.0813 306.223 51.0813 308.811C51.0813 311.399 48.9608 312.771 47.2738 312.771C45.5868 312.771 43.4664 311.399 43.4664 308.811ZM47.2738 316.851C51.3827 316.851 55.4664 313.652 55.4664 308.811C55.4664 303.97 51.3827 300.771 47.2738 300.771C43.165 300.771 39.0813 303.97 39.0813 308.811C39.0813 313.652 43.165 316.851 47.2738 316.851ZM49.4664 308.811C49.4664 309.937 48.4848 310.851 47.2738 310.851C46.0629 310.851 45.0813 309.937 45.0813 308.811C45.0813 307.684 46.0629 306.771 47.2738 306.771C48.4848 306.771 49.4664 307.684 49.4664 308.811Z" stroke="white" stroke-width="12" stroke-linejoin="round"/>
<path d="M56.6217 346.544C56.6217 343.956 58.7421 342.584 60.4291 342.584C62.1161 342.584 64.2366 343.956 64.2366 346.544C64.2366 349.133 62.1161 350.505 60.4291 350.505C58.7421 350.505 56.6217 349.133 56.6217 346.544ZM60.4291 354.584C64.5379 354.584 68.6217 351.386 68.6217 346.544C68.6217 341.703 64.5379 338.505 60.4291 338.505C56.3203 338.505 52.2366 341.703 52.2366 346.544C52.2366 351.386 56.3203 354.584 60.4291 354.584ZM62.6217 346.544C62.6217 347.671 61.64 348.584 60.4291 348.584C59.2182 348.584 58.2366 347.671 58.2366 346.544C58.2366 345.418 59.2182 344.505 60.4291 344.505C61.64 344.505 62.6217 345.418 62.6217 346.544Z" stroke="white" stroke-width="12" stroke-linejoin="round"/>
<path d="M56.6217 271.076C56.6217 268.488 58.7421 267.116 60.4291 267.116C62.1161 267.116 64.2366 268.488 64.2366 271.076C64.2366 273.665 62.1161 275.037 60.4291 275.037C58.7421 275.037 56.6217 273.665 56.6217 271.076ZM60.4291 279.116C64.5379 279.116 68.6217 275.918 68.6217 271.076C68.6217 266.235 64.5379 263.037 60.4291 263.037C56.3203 263.037 52.2366 266.235 52.2366 271.076C52.2366 275.918 56.3203 279.116 60.4291 279.116ZM62.6217 271.076C62.6217 272.203 61.64 273.116 60.4291 273.116C59.2182 273.116 58.2366 272.203 58.2366 271.076C58.2366 269.95 59.2182 269.037 60.4291 269.037C61.64 269.037 62.6217 269.95 62.6217 271.076Z" stroke="white" stroke-width="12" stroke-linejoin="round"/>
<path d="M56.6217 308.811C56.6217 306.223 58.7421 304.851 60.4291 304.851C62.1161 304.851 64.2366 306.223 64.2366 308.811C64.2366 311.399 62.1161 312.771 60.4291 312.771C58.7421 312.771 56.6217 311.399 56.6217 308.811ZM60.4291 316.851C64.5379 316.851 68.6217 313.652 68.6217 308.811C68.6217 303.97 64.5379 300.771 60.4291 300.771C56.3203 300.771 52.2366 303.97 52.2366 308.811C52.2366 313.652 56.3203 316.851 60.4291 316.851ZM62.6217 308.811C62.6217 309.937 61.64 310.851 60.4291 310.851C59.2182 310.851 58.2366 309.937 58.2366 308.811C58.2366 307.684 59.2182 306.771 60.4291 306.771C61.64 306.771 62.6217 307.684 62.6217 308.811Z" stroke="white" stroke-width="12" stroke-linejoin="round"/>
<ellipse cx="185.403" cy="20.1983" rx="43.8509" ry="10.1983" stroke="white" stroke-width="12" stroke-linejoin="round"/>
<ellipse cx="185.403" cy="223.145" rx="43.8509" ry="10.1983" stroke="white" stroke-width="12" stroke-linejoin="round"/>
<path d="M141.552 212.946C141.552 207.314 158.24 202.748 178.825 202.748" stroke="white" stroke-width="12" stroke-linejoin="round" stroke-dasharray="12 12"/>
<path d="M229.254 212.946C229.254 207.314 212.566 202.748 191.981 202.748" stroke="white" stroke-width="12" stroke-linejoin="round" stroke-dasharray="12 12"/>
<ellipse cx="185.403" cy="260.878" rx="43.8509" ry="10.1983" stroke="white" stroke-width="12" stroke-linejoin="round"/>
<ellipse cx="185.403" cy="298.613" rx="43.8509" ry="10.1983" stroke="white" stroke-width="12" stroke-linejoin="round"/>
<ellipse cx="185.403" cy="336.346" rx="43.8509" ry="10.1983" stroke="white" stroke-width="12" stroke-linejoin="round"/>
<path d="M141.552 19.1784V223.144" stroke="white" stroke-width="12" stroke-linejoin="round"/>
<path d="M229.254 19.1784V223.144" stroke="white" stroke-width="12" stroke-linejoin="round"/>
<path d="M229.254 223.144L207.328 253.324V363.881" stroke="white" stroke-width="12" stroke-linejoin="round"/>
<path d="M141.552 223.144L163.477 253.324V363.881" stroke="white" stroke-width="12" stroke-linejoin="round"/>
<path d="M191.981 30.3962L191.981 62.0897L213.907 79.3378L191.981 96.586L213.907 112.397L191.981 128.208L213.907 144.018L191.981 159.829L213.907 175.64L191.981 191.451L191.981 363.881" stroke="white" stroke-width="12" stroke-linejoin="round"/>
<path d="M178.826 30.3962L178.826 62.0897L156.9 79.3378L178.826 96.586L156.9 112.397L178.826 128.208L156.9 144.018L178.826 159.829L156.9 175.64L178.826 191.451L178.826 363.881" stroke="white" stroke-width="12" stroke-linejoin="round"/>
<path d="M175.019 346.544C175.019 343.956 177.139 342.584 178.826 342.584C180.513 342.584 182.634 343.956 182.634 346.544C182.634 349.133 180.513 350.505 178.826 350.505C177.139 350.505 175.019 349.133 175.019 346.544ZM178.826 354.584C182.935 354.584 187.019 351.386 187.019 346.544C187.019 341.703 182.935 338.505 178.826 338.505C174.717 338.505 170.634 341.703 170.634 346.544C170.634 351.386 174.717 354.584 178.826 354.584ZM181.019 346.544C181.019 347.671 180.037 348.584 178.826 348.584C177.615 348.584 176.634 347.671 176.634 346.544C176.634 345.418 177.615 344.505 178.826 344.505C180.037 344.505 181.019 345.418 181.019 346.544Z" stroke="white" stroke-width="12" stroke-linejoin="round"/>
<path d="M175.019 271.076C175.019 268.488 177.139 267.116 178.826 267.116C180.513 267.116 182.634 268.488 182.634 271.076C182.634 273.665 180.513 275.037 178.826 275.037C177.139 275.037 175.019 273.665 175.019 271.076ZM178.826 279.116C182.935 279.116 187.019 275.918 187.019 271.076C187.019 266.235 182.935 263.037 178.826 263.037C174.717 263.037 170.634 266.235 170.634 271.076C170.634 275.918 174.717 279.116 178.826 279.116ZM181.019 271.076C181.019 272.203 180.037 273.116 178.826 273.116C177.615 273.116 176.634 272.203 176.634 271.076C176.634 269.95 177.615 269.037 178.826 269.037C180.037 269.037 181.019 269.95 181.019 271.076Z" stroke="white" stroke-width="12" stroke-linejoin="round"/>
<path d="M175.019 308.811C175.019 306.223 177.139 304.851 178.826 304.851C180.513 304.851 182.634 306.223 182.634 308.811C182.634 311.399 180.513 312.771 178.826 312.771C177.139 312.771 175.019 311.399 175.019 308.811ZM178.826 316.851C182.935 316.851 187.019 313.652 187.019 308.811C187.019 303.97 182.935 300.771 178.826 300.771C174.717 300.771 170.634 303.97 170.634 308.811C170.634 313.652 174.717 316.851 178.826 316.851ZM181.019 308.811C181.019 309.937 180.037 310.851 178.826 310.851C177.615 310.851 176.634 309.937 176.634 308.811C176.634 307.684 177.615 306.771 178.826 306.771C180.037 306.771 181.019 307.684 181.019 308.811Z" stroke="white" stroke-width="12" stroke-linejoin="round"/>
<path d="M188.174 346.544C188.174 343.956 190.294 342.584 191.981 342.584C193.668 342.584 195.789 343.956 195.789 346.544C195.789 349.133 193.668 350.505 191.981 350.505C190.294 350.505 188.174 349.133 188.174 346.544ZM191.981 354.584C196.09 354.584 200.174 351.386 200.174 346.544C200.174 341.703 196.09 338.505 191.981 338.505C187.872 338.505 183.789 341.703 183.789 346.544C183.789 351.386 187.872 354.584 191.981 354.584ZM194.174 346.544C194.174 347.671 193.192 348.584 191.981 348.584C190.77 348.584 189.789 347.671 189.789 346.544C189.789 345.418 190.77 344.505 191.981 344.505C193.192 344.505 194.174 345.418 194.174 346.544Z" stroke="white" stroke-width="12" stroke-linejoin="round"/>
<path d="M188.174 271.076C188.174 268.488 190.294 267.116 191.981 267.116C193.668 267.116 195.789 268.488 195.789 271.076C195.789 273.665 193.668 275.037 191.981 275.037C190.294 275.037 188.174 273.665 188.174 271.076ZM191.981 279.116C196.09 279.116 200.174 275.918 200.174 271.076C200.174 266.235 196.09 263.037 191.981 263.037C187.872 263.037 183.789 266.235 183.789 271.076C183.789 275.918 187.872 279.116 191.981 279.116ZM194.174 271.076C194.174 272.203 193.192 273.116 191.981 273.116C190.77 273.116 189.789 272.203 189.789 271.076C189.789 269.95 190.77 269.037 191.981 269.037C193.192 269.037 194.174 269.95 194.174 271.076Z" stroke="white" stroke-width="12" stroke-linejoin="round"/>
<path d="M188.174 308.811C188.174 306.223 190.294 304.851 191.981 304.851C193.668 304.851 195.789 306.223 195.789 308.811C195.789 311.399 193.668 312.771 191.981 312.771C190.294 312.771 188.174 311.399 188.174 308.811ZM191.981 316.851C196.09 316.851 200.174 313.652 200.174 308.811C200.174 303.97 196.09 300.771 191.981 300.771C187.872 300.771 183.789 303.97 183.789 308.811C183.789 313.652 187.872 316.851 191.981 316.851ZM194.174 308.811C194.174 309.937 193.192 310.851 191.981 310.851C190.77 310.851 189.789 309.937 189.789 308.811C189.789 307.684 190.77 306.771 191.981 306.771C193.192 306.771 194.174 307.684 194.174 308.811Z" stroke="white" stroke-width="12" stroke-linejoin="round"/>
<ellipse cx="319.15" cy="20.1983" rx="43.8509" ry="10.1983" stroke="white" stroke-width="12" stroke-linejoin="round"/>
<ellipse cx="319.15" cy="223.145" rx="43.8509" ry="10.1983" stroke="white" stroke-width="12" stroke-linejoin="round"/>
<path d="M275.299 212.946C275.299 207.314 291.987 202.748 312.572 202.748" stroke="white" stroke-width="12" stroke-linejoin="round" stroke-dasharray="12 12"/>
<path d="M363.001 212.946C363.001 207.314 346.313 202.748 325.728 202.748" stroke="white" stroke-width="12" stroke-linejoin="round" stroke-dasharray="12 12"/>
<ellipse cx="319.15" cy="260.878" rx="43.8509" ry="10.1983" stroke="white" stroke-width="12" stroke-linejoin="round"/>
<ellipse cx="319.15" cy="298.613" rx="43.8509" ry="10.1983" stroke="white" stroke-width="12" stroke-linejoin="round"/>
<ellipse cx="319.15" cy="336.346" rx="43.8509" ry="10.1983" stroke="white" stroke-width="12" stroke-linejoin="round"/>
<path d="M275.299 19.1784V223.144" stroke="white" stroke-width="12" stroke-linejoin="round"/>
<path d="M363.001 19.1784V223.144" stroke="white" stroke-width="12" stroke-linejoin="round"/>
<path d="M363.001 223.144L341.076 253.324V363.881" stroke="white" stroke-width="12" stroke-linejoin="round"/>
<path d="M275.299 223.144L297.225 253.324V363.881" stroke="white" stroke-width="12" stroke-linejoin="round"/>
<path d="M325.728 30.3962L325.728 62.0897L347.654 79.3378L325.728 96.586L347.654 112.397L325.728 128.208L347.654 144.018L325.728 159.829L347.654 175.64L325.728 191.451L325.728 363.881" stroke="white" stroke-width="12" stroke-linejoin="round"/>
<path d="M312.573 30.3962L312.573 62.0897L290.647 79.3378L312.573 96.586L290.647 112.397L312.573 128.208L290.647 144.018L312.573 159.829L290.647 175.64L312.573 191.451L312.573 363.881" stroke="white" stroke-width="12" stroke-linejoin="round"/>
<path d="M308.764 346.544C308.764 343.956 310.885 342.584 312.572 342.584C314.259 342.584 316.379 343.956 316.379 346.544C316.379 349.133 314.259 350.505 312.572 350.505C310.885 350.505 308.764 349.133 308.764 346.544ZM312.572 354.584C316.681 354.584 320.764 351.386 320.764 346.544C320.764 341.703 316.681 338.505 312.572 338.505C308.463 338.505 304.379 341.703 304.379 346.544C304.379 351.386 308.463 354.584 312.572 354.584ZM314.764 346.544C314.764 347.671 313.783 348.584 312.572 348.584C311.361 348.584 310.379 347.671 310.379 346.544C310.379 345.418 311.361 344.505 312.572 344.505C313.783 344.505 314.764 345.418 314.764 346.544Z" stroke="white" stroke-width="12" stroke-linejoin="round"/>
<path d="M308.764 271.076C308.764 268.488 310.885 267.116 312.572 267.116C314.259 267.116 316.379 268.488 316.379 271.076C316.379 273.665 314.259 275.037 312.572 275.037C310.885 275.037 308.764 273.665 308.764 271.076ZM312.572 279.116C316.681 279.116 320.764 275.918 320.764 271.076C320.764 266.235 316.681 263.037 312.572 263.037C308.463 263.037 304.379 266.235 304.379 271.076C304.379 275.918 308.463 279.116 312.572 279.116ZM314.764 271.076C314.764 272.203 313.783 273.116 312.572 273.116C311.361 273.116 310.379 272.203 310.379 271.076C310.379 269.95 311.361 269.037 312.572 269.037C313.783 269.037 314.764 269.95 314.764 271.076Z" stroke="white" stroke-width="12" stroke-linejoin="round"/>
<path d="M308.764 308.811C308.764 306.223 310.885 304.851 312.572 304.851C314.259 304.851 316.379 306.223 316.379 308.811C316.379 311.399 314.259 312.771 312.572 312.771C310.885 312.771 308.764 311.399 308.764 308.811ZM312.572 316.851C316.681 316.851 320.764 313.652 320.764 308.811C320.764 303.97 316.681 300.771 312.572 300.771C308.463 300.771 304.379 303.97 304.379 308.811C304.379 313.652 308.463 316.851 312.572 316.851ZM314.764 308.811C314.764 309.937 313.783 310.851 312.572 310.851C311.361 310.851 310.379 309.937 310.379 308.811C310.379 307.684 311.361 306.771 312.572 306.771C313.783 306.771 314.764 307.684 314.764 308.811Z" stroke="white" stroke-width="12" stroke-linejoin="round"/>
<path d="M321.921 346.544C321.921 343.956 324.041 342.584 325.728 342.584C327.415 342.584 329.536 343.956 329.536 346.544C329.536 349.133 327.415 350.505 325.728 350.505C324.041 350.505 321.921 349.133 321.921 346.544ZM325.728 354.584C329.837 354.584 333.921 351.386 333.921 346.544C333.921 341.703 329.837 338.505 325.728 338.505C321.619 338.505 317.536 341.703 317.536 346.544C317.536 351.386 321.619 354.584 325.728 354.584ZM327.921 346.544C327.921 347.671 326.939 348.584 325.728 348.584C324.517 348.584 323.536 347.671 323.536 346.544C323.536 345.418 324.517 344.505 325.728 344.505C326.939 344.505 327.921 345.418 327.921 346.544Z" stroke="white" stroke-width="12" stroke-linejoin="round"/>
<path d="M321.921 271.076C321.921 268.488 324.041 267.116 325.728 267.116C327.415 267.116 329.536 268.488 329.536 271.076C329.536 273.665 327.415 275.037 325.728 275.037C324.041 275.037 321.921 273.665 321.921 271.076ZM325.728 279.116C329.837 279.116 333.921 275.918 333.921 271.076C333.921 266.235 329.837 263.037 325.728 263.037C321.619 263.037 317.536 266.235 317.536 271.076C317.536 275.918 321.619 279.116 325.728 279.116ZM327.921 271.076C327.921 272.203 326.939 273.116 325.728 273.116C324.517 273.116 323.536 272.203 323.536 271.076C323.536 269.95 324.517 269.037 325.728 269.037C326.939 269.037 327.921 269.95 327.921 271.076Z" stroke="white" stroke-width="12" stroke-linejoin="round"/>
<path d="M321.921 308.811C321.921 306.223 324.041 304.851 325.728 304.851C327.415 304.851 329.536 306.223 329.536 308.811C329.536 311.399 327.415 312.771 325.728 312.771C324.041 312.771 321.921 311.399 321.921 308.811ZM325.728 316.851C329.837 316.851 333.921 313.652 333.921 308.811C333.921 303.97 329.837 300.771 325.728 300.771C321.619 300.771 317.536 303.97 317.536 308.811C317.536 313.652 321.619 316.851 325.728 316.851ZM327.921 308.811C327.921 309.937 326.939 310.851 325.728 310.851C324.517 310.851 323.536 309.937 323.536 308.811C323.536 307.684 324.517 306.771 325.728 306.771C326.939 306.771 327.921 307.684 327.921 308.811Z" stroke="white" stroke-width="12" stroke-linejoin="round"/>
<path d="M75.7766 361.841L91.1533 361.841L99.5216 370L107.89 361.841L115.561 370L123.232 361.841L130.903 370L138.574 361.841L146.245 370L153.915 361.841H163.478" stroke="white" stroke-width="12" stroke-linejoin="round"/>
<path d="M207.33 361.841L222.707 361.841L231.075 370L239.443 361.841L247.114 370L254.785 361.841L262.456 370L270.127 361.841L277.798 370L285.469 361.841H295.032" stroke="white" stroke-width="12" stroke-linejoin="round"/>
</g>
<ellipse cx="53.8509" cy="20.1983" rx="43.8509" ry="10.1983" stroke="#757575" stroke-width="4" stroke-linejoin="round"/>
<ellipse cx="53.8509" cy="223.145" rx="43.8509" ry="10.1983" stroke="#757575" stroke-width="4" stroke-linejoin="round"/>
<path d="M10 212.946C10 207.314 26.6878 202.748 47.2733 202.748" stroke="#757575" stroke-width="4" stroke-linejoin="round" stroke-dasharray="12 12"/>
<path d="M97.7019 212.946C97.7019 207.314 81.0141 202.748 60.4286 202.748" stroke="#757575" stroke-width="4" stroke-linejoin="round" stroke-dasharray="12 12"/>
<ellipse cx="53.8509" cy="260.878" rx="43.8509" ry="10.1983" stroke="#757575" stroke-width="4" stroke-linejoin="round"/>
<ellipse cx="53.8509" cy="298.613" rx="43.8509" ry="10.1983" stroke="#757575" stroke-width="4" stroke-linejoin="round"/>
<ellipse cx="53.8509" cy="336.346" rx="43.8509" ry="10.1983" stroke="#757575" stroke-width="4" stroke-linejoin="round"/>
<path d="M10 19.1784V223.144" stroke="#757575" stroke-width="4" stroke-linejoin="round"/>
<path d="M97.7019 19.1784V223.144" stroke="#757575" stroke-width="4" stroke-linejoin="round"/>
<path d="M97.7019 223.144L75.7765 253.324V363.881" stroke="#757575" stroke-width="4" stroke-linejoin="round"/>
<path d="M10 223.144L31.9254 253.324V363.881" stroke="#757575" stroke-width="4" stroke-linejoin="round"/>
<path d="M60.4293 30.3962L60.4293 62.0897L82.3547 79.3378L60.4293 96.586L82.3547 112.397L60.4293 128.208L82.3547 144.018L60.4293 159.829L82.3547 175.64L60.4293 191.451L60.4293 363.881" stroke="#757575" stroke-width="4" stroke-linejoin="round"/>
<path d="M47.2736 30.3962L47.2736 62.0897L25.3481 79.3378L47.2736 96.586L25.3482 112.397L47.2736 128.208L25.3482 144.018L47.2736 159.829L25.3482 175.64L47.2736 191.451L47.2736 363.881" stroke="#757575" stroke-width="4" stroke-linejoin="round"/>
<path d="M47.2738 350.584C49.4507 350.584 51.4664 348.909 51.4664 346.544C51.4664 344.18 49.4507 342.505 47.2738 342.505C45.097 342.505 43.0813 344.18 43.0813 346.544C43.0813 348.909 45.097 350.584 47.2738 350.584Z" fill="#CBCBCB" stroke="#757575" stroke-width="4" stroke-linejoin="round"/>
<path d="M47.2738 275.116C49.4507 275.116 51.4664 273.441 51.4664 271.076C51.4664 268.712 49.4507 267.037 47.2738 267.037C45.097 267.037 43.0813 268.712 43.0813 271.076C43.0813 273.441 45.097 275.116 47.2738 275.116Z" fill="#CBCBCB" stroke="#757575" stroke-width="4" stroke-linejoin="round"/>
<path d="M47.2738 312.851C49.4507 312.851 51.4664 311.176 51.4664 308.811C51.4664 306.446 49.4507 304.771 47.2738 304.771C45.097 304.771 43.0813 306.446 43.0813 308.811C43.0813 311.176 45.097 312.851 47.2738 312.851Z" fill="#CBCBCB" stroke="#757575" stroke-width="4" stroke-linejoin="round"/>
<path d="M60.4291 350.584C62.606 350.584 64.6217 348.909 64.6217 346.544C64.6217 344.18 62.606 342.505 60.4291 342.505C58.2522 342.505 56.2366 344.18 56.2366 346.544C56.2366 348.909 58.2522 350.584 60.4291 350.584Z" fill="#CBCBCB" stroke="#757575" stroke-width="4" stroke-linejoin="round"/>
<path d="M60.4291 275.116C62.606 275.116 64.6217 273.441 64.6217 271.076C64.6217 268.712 62.606 267.037 60.4291 267.037C58.2522 267.037 56.2366 268.712 56.2366 271.076C56.2366 273.441 58.2522 275.116 60.4291 275.116Z" fill="#CBCBCB" stroke="#757575" stroke-width="4" stroke-linejoin="round"/>
<path d="M60.4291 312.851C62.606 312.851 64.6217 311.176 64.6217 308.811C64.6217 306.446 62.606 304.771 60.4291 304.771C58.2522 304.771 56.2366 306.446 56.2366 308.811C56.2366 311.176 58.2522 312.851 60.4291 312.851Z" fill="#CBCBCB" stroke="#757575" stroke-width="4" stroke-linejoin="round"/>
<ellipse cx="185.403" cy="20.1983" rx="43.8509" ry="10.1983" stroke="#757575" stroke-width="4" stroke-linejoin="round"/>
<ellipse cx="185.403" cy="223.145" rx="43.8509" ry="10.1983" stroke="#757575" stroke-width="4" stroke-linejoin="round"/>
<path d="M141.552 212.946C141.552 207.314 158.24 202.748 178.825 202.748" stroke="#757575" stroke-width="4" stroke-linejoin="round" stroke-dasharray="12 12"/>
<path d="M229.254 212.946C229.254 207.314 212.566 202.748 191.981 202.748" stroke="#757575" stroke-width="4" stroke-linejoin="round" stroke-dasharray="12 12"/>
<ellipse cx="185.403" cy="260.878" rx="43.8509" ry="10.1983" stroke="#757575" stroke-width="4" stroke-linejoin="round"/>
<ellipse cx="185.403" cy="298.613" rx="43.8509" ry="10.1983" stroke="#757575" stroke-width="4" stroke-linejoin="round"/>
<ellipse cx="185.403" cy="336.346" rx="43.8509" ry="10.1983" stroke="#757575" stroke-width="4" stroke-linejoin="round"/>
<path d="M141.552 19.1784V223.144" stroke="#757575" stroke-width="4" stroke-linejoin="round"/>
<path d="M229.254 19.1784V223.144" stroke="#757575" stroke-width="4" stroke-linejoin="round"/>
<path d="M229.254 223.144L207.328 253.324V363.881" stroke="#757575" stroke-width="4" stroke-linejoin="round"/>
<path d="M141.552 223.144L163.477 253.324V363.881" stroke="#757575" stroke-width="4" stroke-linejoin="round"/>
<path d="M191.981 30.3962L191.981 62.0897L213.907 79.3378L191.981 96.586L213.907 112.397L191.981 128.208L213.907 144.018L191.981 159.829L213.907 175.64L191.981 191.451L191.981 363.881" stroke="#757575" stroke-width="4" stroke-linejoin="round"/>
<path d="M178.826 30.3962L178.826 62.0897L156.9 79.3378L178.826 96.586L156.9 112.397L178.826 128.208L156.9 144.018L178.826 159.829L156.9 175.64L178.826 191.451L178.826 363.881" stroke="#757575" stroke-width="4" stroke-linejoin="round"/>
<path d="M178.826 350.584C181.003 350.584 183.019 348.909 183.019 346.544C183.019 344.18 181.003 342.505 178.826 342.505C176.649 342.505 174.634 344.18 174.634 346.544C174.634 348.909 176.649 350.584 178.826 350.584Z" fill="#CBCBCB" stroke="#757575" stroke-width="4" stroke-linejoin="round"/>
<path d="M178.826 275.116C181.003 275.116 183.019 273.441 183.019 271.076C183.019 268.712 181.003 267.037 178.826 267.037C176.649 267.037 174.634 268.712 174.634 271.076C174.634 273.441 176.649 275.116 178.826 275.116Z" fill="#CBCBCB" stroke="#757575" stroke-width="4" stroke-linejoin="round"/>
<path d="M178.826 312.851C181.003 312.851 183.019 311.176 183.019 308.811C183.019 306.446 181.003 304.771 178.826 304.771C176.649 304.771 174.634 306.446 174.634 308.811C174.634 311.176 176.649 312.851 178.826 312.851Z" fill="#CBCBCB" stroke="#757575" stroke-width="4" stroke-linejoin="round"/>
<path d="M191.981 350.584C194.158 350.584 196.174 348.909 196.174 346.544C196.174 344.18 194.158 342.505 191.981 342.505C189.804 342.505 187.789 344.18 187.789 346.544C187.789 348.909 189.804 350.584 191.981 350.584Z" fill="#CBCBCB" stroke="#757575" stroke-width="4" stroke-linejoin="round"/>
<path d="M191.981 275.116C194.158 275.116 196.174 273.441 196.174 271.076C196.174 268.712 194.158 267.037 191.981 267.037C189.804 267.037 187.789 268.712 187.789 271.076C187.789 273.441 189.804 275.116 191.981 275.116Z" fill="#CBCBCB" stroke="#757575" stroke-width="4" stroke-linejoin="round"/>
<path d="M191.981 312.851C194.158 312.851 196.174 311.176 196.174 308.811C196.174 306.446 194.158 304.771 191.981 304.771C189.804 304.771 187.789 306.446 187.789 308.811C187.789 311.176 189.804 312.851 191.981 312.851Z" fill="#CBCBCB" stroke="#757575" stroke-width="4" stroke-linejoin="round"/>
<ellipse cx="319.15" cy="20.1983" rx="43.8509" ry="10.1983" stroke="#757575" stroke-width="4" stroke-linejoin="round"/>
<ellipse cx="319.15" cy="223.145" rx="43.8509" ry="10.1983" stroke="#757575" stroke-width="4" stroke-linejoin="round"/>
<path d="M275.299 212.946C275.299 207.314 291.987 202.748 312.572 202.748" stroke="#757575" stroke-width="4" stroke-linejoin="round" stroke-dasharray="12 12"/>
<path d="M363.001 212.946C363.001 207.314 346.313 202.748 325.728 202.748" stroke="#757575" stroke-width="4" stroke-linejoin="round" stroke-dasharray="12 12"/>
<ellipse cx="319.15" cy="260.878" rx="43.8509" ry="10.1983" stroke="#757575" stroke-width="4" stroke-linejoin="round"/>
<ellipse cx="319.15" cy="298.613" rx="43.8509" ry="10.1983" stroke="#757575" stroke-width="4" stroke-linejoin="round"/>
<ellipse cx="319.15" cy="336.346" rx="43.8509" ry="10.1983" stroke="#757575" stroke-width="4" stroke-linejoin="round"/>
<path d="M275.299 19.1784V223.144" stroke="#757575" stroke-width="4" stroke-linejoin="round"/>
<path d="M363.001 19.1784V223.144" stroke="#757575" stroke-width="4" stroke-linejoin="round"/>
<path d="M363.001 223.144L341.076 253.324V363.881" stroke="#757575" stroke-width="4" stroke-linejoin="round"/>
<path d="M275.299 223.144L297.225 253.324V363.881" stroke="#757575" stroke-width="4" stroke-linejoin="round"/>
<path d="M325.728 30.3962L325.728 62.0897L347.654 79.3378L325.728 96.586L347.654 112.397L325.728 128.208L347.654 144.018L325.728 159.829L347.654 175.64L325.728 191.451L325.728 363.881" stroke="#757575" stroke-width="4" stroke-linejoin="round"/>
<path d="M312.573 30.3962L312.573 62.0897L290.647 79.3378L312.573 96.586L290.647 112.397L312.573 128.208L290.647 144.018L312.573 159.829L290.647 175.64L312.573 191.451L312.573 363.881" stroke="#757575" stroke-width="4" stroke-linejoin="round"/>
<path d="M312.572 350.584C314.749 350.584 316.764 348.909 316.764 346.544C316.764 344.18 314.749 342.505 312.572 342.505C310.395 342.505 308.379 344.18 308.379 346.544C308.379 348.909 310.395 350.584 312.572 350.584Z" fill="#CBCBCB" stroke="#757575" stroke-width="4" stroke-linejoin="round"/>
<path d="M312.572 275.116C314.749 275.116 316.764 273.441 316.764 271.076C316.764 268.712 314.749 267.037 312.572 267.037C310.395 267.037 308.379 268.712 308.379 271.076C308.379 273.441 310.395 275.116 312.572 275.116Z" fill="#CBCBCB" stroke="#757575" stroke-width="4" stroke-linejoin="round"/>
<path d="M312.572 312.851C314.749 312.851 316.764 311.176 316.764 308.811C316.764 306.446 314.749 304.771 312.572 304.771C310.395 304.771 308.379 306.446 308.379 308.811C308.379 311.176 310.395 312.851 312.572 312.851Z" fill="#CBCBCB" stroke="#757575" stroke-width="4" stroke-linejoin="round"/>
<path d="M325.728 350.584C327.905 350.584 329.921 348.909 329.921 346.544C329.921 344.18 327.905 342.505 325.728 342.505C323.551 342.505 321.536 344.18 321.536 346.544C321.536 348.909 323.551 350.584 325.728 350.584Z" fill="#CBCBCB" stroke="#757575" stroke-width="4" stroke-linejoin="round"/>
<path d="M325.728 275.116C327.905 275.116 329.921 273.441 329.921 271.076C329.921 268.712 327.905 267.037 325.728 267.037C323.551 267.037 321.536 268.712 321.536 271.076C321.536 273.441 323.551 275.116 325.728 275.116Z" fill="#CBCBCB" stroke="#757575" stroke-width="4" stroke-linejoin="round"/>
<path d="M325.728 312.851C327.905 312.851 329.921 311.176 329.921 308.811C329.921 306.446 327.905 304.771 325.728 304.771C323.551 304.771 321.536 306.446 321.536 308.811C321.536 311.176 323.551 312.851 325.728 312.851Z" fill="#CBCBCB" stroke="#757575" stroke-width="4" stroke-linejoin="round"/>
<path d="M75.7766 361.841L91.1533 361.841L99.5216 370L107.89 361.841L115.561 370L123.232 361.841L130.903 370L138.574 361.841L146.245 370L153.915 361.841H163.478" stroke="#757575" stroke-width="4" stroke-linejoin="round"/>
<path d="M207.33 361.841L222.707 361.841L231.075 370L239.443 361.841L247.114 370L254.785 361.841L262.456 370L270.127 361.841L277.798 370L285.469 361.841H295.032" stroke="#757575" stroke-width="4" stroke-linejoin="round"/>
<defs>
<filter id="filter0_f_569_76" x="0" y="0" width="373.001" height="380" filterUnits="userSpaceOnUse" color-interpolation-filters="sRGB">
<feFlood flood-opacity="0" result="BackgroundImageFix"/>
<feBlend mode="normal" in="SourceGraphic" in2="BackgroundImageFix" result="shape"/>
<feGaussianBlur stdDeviation="2" result="effect1_foregroundBlur_569_76"/>
</filter>
</defs>
</svg>
