<svg width="280" height="118" viewBox="0 0 280 118" fill="none" xmlns="http://www.w3.org/2000/svg">
<path d="M40.7367 59C35.8775 58.3971 33.645 54.6268 33.6236 49.9231C33.6067 46.4366 33.6151 43.0376 33.6236 39.5495C33.6236 39.5083 33.5823 39.5495 33.6236 39.5495H41.3834C41.4172 39.5495 41.3595 39.5258 41.3834 39.5495C41.4073 39.5731 41.3834 39.516 41.3834 39.5495C41.3825 42.4851 41.3859 45.6756 41.3834 48.6264C41.3808 50.13 41.5554 51.6411 43.3233 51.8682C45.2718 52.1167 45.7786 50.3242 45.9099 48.6264C46.027 47.1161 46.0236 45.5999 45.9099 44.0879C45.7382 41.7998 44.6922 40.02 43.3233 38.2528C41.5798 36.0025 39.9104 34.007 38.1501 31.7693C35.7041 28.6574 34.4508 25.374 34.2702 21.3956C34.0467 16.4624 33.7773 10.3497 39.4434 8.42861C40.3737 8.11326 41.5722 7.83744 42.6767 7.78026C44.5473 7.68271 45.8748 7.59526 47.2032 7.78026C51.7758 8.41852 53.642 11.905 53.6697 16.2088C53.6883 19.0722 53.6866 21.7724 53.6697 24.6374C53.6697 24.6786 53.711 24.6374 53.6697 24.6374H46.5566C46.5228 24.6374 45.9339 24.6613 45.9099 24.6374C45.886 24.6135 45.9099 24.6712 45.9099 24.6374C45.9108 22.3585 45.9066 19.813 45.9099 17.5055C45.9125 16.1811 46.2936 15.1114 44.6166 14.9121C42.6164 14.675 42.0742 15.7711 42.03 17.5055C42.0048 18.4751 41.9576 19.1302 42.03 20.0989C42.1917 22.2471 43.3399 24.264 44.6166 25.9341C46.515 28.4182 47.8763 30.5937 49.7898 33.066C51.8924 35.7843 53.9047 38.6716 54.3164 42.1429C54.5702 44.2847 54.4566 47.0257 54.3164 49.2748C53.9994 54.3708 51.4536 58.474 45.9099 59C44.1488 59.1674 42.2723 59.1909 40.7367 59Z" fill="#757575"/>
<path d="M31.6838 52.5165C31.7255 54.3733 31.7119 56.5593 31.6838 58.3517C31.6813 58.4696 31.803 58.3517 31.6838 58.3517H23.924C23.8901 58.3517 23.948 58.3752 23.924 58.3517C23.9001 58.3281 23.924 58.3849 23.924 58.3517V36.3077C23.924 36.2744 23.948 36.3312 23.924 36.3077C23.9001 36.2842 23.9579 36.3077 23.924 36.3077H18.7508C18.7166 36.3077 18.775 36.2842 18.7508 36.3077C18.7266 36.3312 18.7508 36.2744 18.7508 36.3077V58.3517C18.7508 58.4562 18.8572 58.3517 18.7508 58.3517H10.991C10.9382 58.3517 10.991 58.4035 10.991 58.3517V8.42858C10.991 8.38674 10.9484 8.42858 10.991 8.42858H18.7508C18.7633 8.42858 18.7419 8.41987 18.7508 8.42858C18.7597 8.43729 18.7508 8.41626 18.7508 8.42858V28.5275C18.7508 28.5415 18.7453 28.5145 18.7508 28.5275C18.7563 28.5404 18.7406 28.5176 18.7508 28.5275C18.761 28.5374 18.7375 28.5221 18.7508 28.5275C18.7641 28.5328 18.7364 28.5275 18.7508 28.5275H23.924C23.9579 28.5275 23.9001 28.551 23.924 28.5275C23.948 28.5039 23.924 28.5608 23.924 28.5275V8.42858C23.924 8.37586 23.8712 8.42858 23.924 8.42858H31.6838C31.7099 8.42858 31.6654 8.41046 31.6838 8.42858C31.7023 8.44671 31.6838 8.40295 31.6838 8.42858C31.6838 23.0911 31.6838 37.8314 31.6838 52.5165C31.6838 52.5382 31.6923 52.4981 31.6838 52.5165C31.6711 52.5466 31.683 52.4839 31.6838 52.5165Z" fill="#757575"/>
<path d="M64.0162 28.5274H71.1293C71.1475 28.5274 71.1165 28.5145 71.1293 28.5274C71.1421 28.5404 71.1293 28.5091 71.1293 28.5274V36.3076C71.1293 36.3259 71.1421 36.2947 71.1293 36.3076C71.1165 36.3206 71.1475 36.3076 71.1293 36.3076H64.0162C63.998 36.3076 64.029 36.2947 64.0162 36.3076C64.0033 36.3206 64.0162 36.2893 64.0162 36.3076V50.5714C64.0162 50.5897 64.0033 50.5584 64.0162 50.5714C64.029 50.5843 63.998 50.5714 64.0162 50.5714H73.7159C73.7341 50.5714 73.7031 50.5584 73.7159 50.5714C73.7287 50.5843 73.7159 50.5531 73.7159 50.5714V58.3516C73.7159 58.3699 73.7287 58.3387 73.7159 58.3516C73.7031 58.3645 73.7341 58.3516 73.7159 58.3516H56.2563C56.2382 58.3516 56.2692 58.3645 56.2563 58.3516C56.2435 58.3387 56.2563 58.3699 56.2563 58.3516V8.42852C56.2563 8.41021 56.2435 8.44147 56.2563 8.42852C56.2692 8.41558 56.2382 8.42852 56.2563 8.42852H73.0693C73.0874 8.42852 73.0565 8.41558 73.0693 8.42852C73.0821 8.44147 73.0693 8.41021 73.0693 8.42852V15.5604C73.0693 15.5787 73.0821 15.5474 73.0693 15.5604C73.0565 15.5733 73.0874 15.5604 73.0693 15.5604H64.0162C63.998 15.5604 64.029 15.5474 64.0162 15.5604C64.0033 15.5733 64.0162 15.5421 64.0162 15.5604V28.5274C64.0162 28.5365 64.0127 28.519 64.0162 28.5274C64.0196 28.5358 64.0098 28.521 64.0162 28.5274C64.0225 28.5338 64.0079 28.524 64.0162 28.5274C64.0245 28.5309 64.0072 28.5274 64.0162 28.5274Z" fill="#757575"/>
<path d="M89.2356 49.2747L87.9423 58.3516C87.9395 58.3769 87.961 58.3347 87.9423 58.3516C87.9235 58.3685 87.9674 58.3518 87.9423 58.3516H81.4757C81.4613 58.3517 81.489 58.3575 81.4757 58.3516C81.4625 58.3457 81.4854 58.3625 81.4757 58.3516C81.4661 58.3407 81.4801 58.3656 81.4757 58.3516C81.4714 58.3376 81.474 58.3661 81.4757 58.3516L87.2956 8.42853C87.2986 8.40346 87.2769 8.44519 87.2956 8.42853C87.3144 8.41186 87.2707 8.42834 87.2956 8.42853H96.3487C96.3733 8.4286 96.3303 8.41215 96.3487 8.42853C96.3672 8.4449 96.3454 8.4039 96.3487 8.42853L102.815 58.3516C102.817 58.3661 102.819 58.3376 102.815 58.3516C102.811 58.3656 102.825 58.3405 102.815 58.3516C102.806 58.3626 102.828 58.3455 102.815 58.3516C102.802 58.3577 102.83 58.3516 102.815 58.3516H95.7021C95.6769 58.3518 95.7209 58.3685 95.7021 58.3516C95.6833 58.3347 95.7048 58.3769 95.7021 58.3516L94.4088 49.2747C94.406 49.2494 94.4275 49.2916 94.4088 49.2747C94.39 49.2578 94.4339 49.2745 94.4088 49.2747H89.2356C89.2104 49.2745 89.2543 49.2578 89.2356 49.2747C89.2168 49.2916 89.2383 49.2494 89.2356 49.2747ZM89.8822 41.4945C89.8817 41.5 89.8805 41.4891 89.8822 41.4945C89.884 41.4998 89.8785 41.4903 89.8822 41.4945C89.886 41.4986 89.8771 41.4922 89.8822 41.4945C89.8873 41.4967 89.8767 41.4945 89.8822 41.4945H93.7621C93.7677 41.4945 93.757 41.4967 93.7621 41.4945C93.7672 41.4922 93.7584 41.4986 93.7621 41.4945C93.7659 41.4903 93.7604 41.4998 93.7621 41.4945C93.7639 41.4891 93.7626 41.5 93.7621 41.4945L91.8222 23.3406C91.8205 23.3313 91.8293 23.3467 91.8222 23.3406C91.815 23.3346 91.8315 23.3406 91.8222 23.3406C91.8129 23.3406 91.8293 23.3346 91.8222 23.3406C91.815 23.3467 91.8238 23.3313 91.8222 23.3406L89.8822 41.4945Z" fill="#757575"/>
<path d="M111.868 36.3077C111.816 36.3103 111.868 36.255 111.868 36.3077V58.3517C111.868 58.389 111.895 58.3253 111.868 58.3517C111.842 58.3781 111.906 58.3517 111.868 58.3517H104.109C104.075 58.3517 104.132 58.3755 104.109 58.3517C104.085 58.3279 104.109 58.3853 104.109 58.3517V8.42863C104.109 8.39601 104.086 8.4517 104.109 8.42863C104.132 8.40556 104.076 8.42863 104.109 8.42863C108.307 8.42779 112.813 8.42695 117.042 8.42863C122.423 8.43114 124.204 11.9422 124.155 16.8572C124.126 19.8004 124.191 22.3426 124.155 25.2858C124.123 27.7633 123.217 29.9725 120.922 31.1209C120.916 31.1238 120.925 31.1157 120.922 31.1209C120.918 31.1262 120.922 31.1149 120.922 31.1209C120.922 31.127 120.918 31.116 120.922 31.1209C120.925 31.1259 120.916 31.1185 120.922 31.1209C122.911 32.0204 124.043 34.0904 124.155 36.3077C124.178 36.7696 124.152 37.1384 124.155 37.6045C124.178 42.0391 124.159 46.1368 124.155 50.5715C124.152 53.0001 123.745 55.4203 124.802 57.7034C124.818 57.7381 124.804 58.3135 124.802 58.3517C124.799 58.3899 124.822 58.3195 124.802 58.3517C124.781 58.3839 124.835 58.3333 124.802 58.3517C124.768 58.3701 124.84 58.3516 124.802 58.3517H117.688C117.633 58.3516 117.088 58.382 117.042 58.3517C116.995 58.3214 117.064 58.4024 117.042 58.3517C116.666 57.5041 116.406 56.7373 116.395 55.7583C116.334 50.1706 116.372 44.4888 116.395 38.9012C116.401 37.2934 116.067 36.4232 114.455 36.3077C113.629 36.2492 112.676 36.2659 111.868 36.3077ZM114.455 29.1759C116.444 28.9462 116.439 26.1724 116.395 24.6374C116.332 22.4448 116.394 20.3478 116.395 18.1539C116.395 16.6403 116.212 15.681 114.455 15.5605C113.589 15.5003 112.715 14.8803 111.868 14.9121C111.839 14.9131 111.889 15.5394 111.868 15.5605C111.848 15.5816 111.868 15.5312 111.868 15.5605V28.5275C111.868 28.5461 111.861 29.1588 111.868 29.1759C111.876 29.1929 111.855 29.1632 111.868 29.1759C111.882 29.1886 111.851 29.1696 111.868 29.1759C111.886 29.1822 111.85 29.1771 111.868 29.1759C112.717 29.1181 113.643 29.27 114.455 29.1759Z" fill="#757575"/>
<path d="M139.028 58.3517H131.915C131.899 58.3517 131.929 58.3576 131.915 58.3517C131.901 58.3458 131.925 58.3625 131.915 58.3517C131.904 58.3409 131.92 58.3659 131.915 58.3517C131.909 58.3375 131.915 58.367 131.915 58.3517V15.5605C131.915 15.5295 131.936 15.5824 131.915 15.5605C131.893 15.5386 131.945 15.5605 131.915 15.5605H125.448C125.418 15.5605 125.47 15.5824 125.448 15.5605C125.426 15.5386 125.448 15.5915 125.448 15.5605V8.42862C125.448 8.4133 125.442 8.44279 125.448 8.42862C125.454 8.41446 125.437 8.43946 125.448 8.42862C125.459 8.41778 125.434 8.43449 125.448 8.42862C125.462 8.42276 125.433 8.42862 125.448 8.42862H145.494C145.509 8.42862 145.48 8.42276 145.494 8.42862C145.508 8.43449 145.484 8.41778 145.494 8.42862C145.505 8.43946 145.489 8.41446 145.494 8.42862C145.5 8.44279 145.494 8.4133 145.494 8.42862V15.5605C145.494 15.5915 145.516 15.5386 145.494 15.5605C145.473 15.5824 145.525 15.5605 145.494 15.5605H139.028C139.013 15.5605 139.042 15.5546 139.028 15.5605C139.014 15.5664 139.039 15.5497 139.028 15.5605C139.017 15.5713 139.034 15.5463 139.028 15.5605C139.022 15.5747 139.028 15.5452 139.028 15.5605V58.3517C139.028 58.3827 139.049 58.3298 139.028 58.3517C139.006 58.3736 139.058 58.3517 139.028 58.3517Z" fill="#757575"/>
<path d="M165.54 49.2747H160.367C160.347 49.2749 160.382 49.2613 160.367 49.2747C160.353 49.2881 160.369 49.2548 160.367 49.2747L159.074 58.3516C159.072 58.3715 159.089 58.3382 159.074 58.3516C159.059 58.365 159.094 58.3514 159.074 58.3516H152.607C152.596 58.3515 152.618 58.3564 152.607 58.3516C152.597 58.3468 152.615 58.3602 152.607 58.3516C152.6 58.3429 152.611 58.3626 152.607 58.3516C152.604 58.3406 152.606 58.363 152.607 58.3516L158.427 8.42852C158.43 8.40867 158.412 8.44171 158.427 8.42852C158.442 8.41533 158.408 8.42837 158.427 8.42852H167.48C167.5 8.42868 167.466 8.41536 167.48 8.42852C167.495 8.44168 167.478 8.40888 167.48 8.42852L173.947 58.3516C173.948 58.363 173.95 58.3406 173.947 58.3516C173.944 58.3626 173.954 58.3429 173.947 58.3516C173.939 58.3602 173.957 58.3468 173.947 58.3516C173.937 58.3564 173.958 58.3515 173.947 58.3516H166.834C166.814 58.3514 166.848 58.365 166.834 58.3516C166.819 58.3382 166.836 58.3715 166.834 58.3516L165.54 49.2747C165.538 49.2548 165.555 49.2881 165.54 49.2747C165.526 49.2613 165.56 49.2749 165.54 49.2747ZM164.894 41.4945C164.902 41.4945 164.886 41.4979 164.894 41.4945C164.901 41.491 164.888 41.5007 164.894 41.4945C164.899 41.4882 164.891 41.5025 164.894 41.4945C164.896 41.4864 164.895 41.5029 164.894 41.4945L162.954 23.3406C162.922 23.0411 162.985 23.0402 162.954 23.3406L161.014 41.4945C161.013 41.4998 161.012 41.4893 161.014 41.4945C161.015 41.4996 161.01 41.4904 161.014 41.4945C161.018 41.4985 161.009 41.4922 161.014 41.4945C161.019 41.4967 161.008 41.4945 161.014 41.4945H164.894Z" fill="#757575"/>
<path d="M183 29.8242C182.969 30.1171 182.353 30.2416 182.353 30.4726C182.352 39.6647 182.353 49.1629 182.353 58.3517C182.353 58.3693 182.365 58.3392 182.353 58.3517C182.341 58.3642 182.37 58.3517 182.353 58.3517H175.887C175.767 58.3517 175.887 58.473 175.887 58.3517V8.42861C175.887 8.41197 175.875 8.44038 175.887 8.42861C175.898 8.41685 175.87 8.42861 175.887 8.42861H182.353C182.376 8.42861 182.995 8.40686 183 8.42861L188.82 35.011C188.873 35.2328 188.82 35.2395 188.82 35.011V8.42861C188.82 8.41497 188.81 8.43826 188.82 8.42861C188.829 8.41896 188.806 8.42861 188.82 8.42861H195.933C195.949 8.42861 195.921 8.41685 195.933 8.42861C195.945 8.44038 195.933 8.41197 195.933 8.42861V58.3517C195.933 58.3726 195.941 58.3324 195.933 58.3517C195.925 58.371 195.948 58.3369 195.933 58.3517C195.918 58.3665 195.952 58.3437 195.933 58.3517C195.914 58.3597 195.954 58.3517 195.933 58.3517H190.113C190.085 58.3517 190.135 58.369 190.113 58.3517C190.091 58.3344 190.12 58.3789 190.113 58.3517L183 29.8242C182.988 29.779 183.005 29.7774 183 29.8242Z" fill="#757575"/>
<path d="M198.52 58.3517C198.459 58.351 198.562 58.3952 198.52 58.3517C198.477 58.3082 198.52 58.4128 198.52 58.3517V8.42862C198.52 8.39601 198.497 8.45168 198.52 8.42862C198.542 8.40557 198.488 8.42862 198.52 8.42862C202.43 8.42695 206.219 8.43197 210.159 8.42862C214.408 8.42612 217.714 10.0731 218.566 14.2638C218.76 15.2215 218.565 16.6524 218.566 17.5055C218.569 28.0952 218.583 38.686 218.566 49.2748C218.556 54.8519 216.021 58.3203 210.159 58.3517C206.423 58.3718 202.359 58.3801 198.52 58.3517ZM210.806 18.8023C210.802 17.2301 210.277 15.6621 208.219 15.5605C207.42 15.5212 207.066 14.8896 206.28 14.9121C206.265 14.9125 206.29 14.9016 206.28 14.9121C206.269 14.9227 206.279 15.5457 206.28 15.5605V51.2198C206.28 51.2675 206.232 51.2173 206.28 51.2198C206.976 51.2583 207.522 51.26 208.219 51.2198C210.574 51.0856 210.805 49.1779 210.806 47.3297C210.813 37.9538 210.825 28.179 210.806 18.8023Z" fill="#757575"/>
<path d="M54.9631 106.978C53.6439 105.257 53.0283 103.261 53.0232 101.143C53.0148 97.7058 53.0122 94.2063 53.0232 90.7693C53.0232 90.7323 52.9869 90.7693 53.0232 90.7693H60.783C60.8252 90.7693 60.783 90.7264 60.783 90.7693C60.7822 93.2413 60.7796 95.4332 60.783 97.9011C60.7843 99.6676 60.173 102.972 62.723 103.088C64.4217 103.165 65.1768 102.038 65.3096 100.495C65.4601 98.7546 65.5195 96.1913 65.3096 94.6594C65.0275 92.613 64.0068 91.1343 62.723 89.4725C60.9581 87.1896 59.329 85.2611 57.5498 82.989C55.2351 80.0311 53.9899 77.0337 53.6698 73.2638C53.1285 66.8965 53.2043 59.5308 61.4297 59C67.778 58.5902 72.9872 59.8459 73.0694 67.4286C73.1006 70.2394 73.0896 72.9362 73.0694 75.8572C73.0694 75.8725 73.0803 75.8463 73.0694 75.8572C73.0585 75.868 73.0848 75.8572 73.0694 75.8572H65.9562C65.9391 75.8572 65.3217 75.8692 65.3096 75.8572C65.2975 75.8451 65.3096 75.8742 65.3096 75.8572C65.3096 73.4397 65.3113 71.1612 65.3096 68.7253C65.3083 67.1555 65.2656 65.3486 63.3696 65.4835C62.3004 65.5609 61.611 66.4065 61.4297 67.4286C61.1906 68.7714 61.2893 70.6999 61.4297 71.9671C61.6738 74.1735 62.6844 75.4189 64.0163 77.1539C66.2618 80.079 67.6979 82.5682 68.5428 83.6374C70.4502 86.0519 72.2371 88.4584 73.0694 91.4176C73.7322 93.7716 73.773 95.9975 73.716 98.5495C73.6857 99.9398 73.8434 101.001 73.716 101.791C72.9799 106.358 70.0971 109.762 65.3096 110.22C61.6908 110.565 57.3917 110.149 54.9631 106.978Z" fill="#757575"/>
<path d="M100.229 105.033C100.227 105.027 100.233 105.037 100.229 105.033C100.224 105.029 100.235 105.033 100.229 105.033C100.223 105.033 100.234 105.03 100.229 105.033C100.223 105.036 100.231 105.027 100.229 105.033C99.1565 107.719 97.35 109.893 94.4088 110.22C89.7032 110.743 86.5975 107.358 86.0023 103.088C85.9301 102.572 86.0023 101.543 86.0023 100.494C85.999 90.1415 85.9874 79.7265 86.0023 69.3736C86.0085 65.473 87.212 61.2136 91.1755 59.6483C93.2052 58.8468 95.4306 58.8804 97.642 58.9999C103.731 59.3296 105.328 63.2845 105.402 68.7252C105.429 70.7502 105.402 73.0278 105.402 75.2087C105.402 75.2428 105.426 75.1847 105.402 75.2087C105.378 75.2328 105.436 75.2087 105.402 75.2087H98.2887C98.256 75.2087 98.3118 75.2321 98.2887 75.2087C98.2656 75.1854 98.2887 75.2418 98.2887 75.2087C98.2928 73.1175 98.2962 70.8274 98.2887 68.7252C98.2825 67.0442 97.4889 65.8047 95.7021 66.1318C93.9439 66.4539 93.7621 68.5837 93.7621 70.0219C93.758 79.6585 93.7646 89.5603 93.7621 99.1978C93.7609 100.823 94.4025 102.452 96.3487 102.44C98.5702 102.427 98.9353 101.069 98.9353 99.1978C98.9337 95.1629 98.9287 90.8954 98.9353 86.8791C98.9353 86.8659 98.9404 86.8912 98.9353 86.8791C98.9303 86.8669 98.9446 86.8883 98.9353 86.8791C98.9261 86.8698 98.9474 86.884 98.9353 86.8791C98.9233 86.8741 98.9484 86.8789 98.9353 86.8791H95.7021C95.6853 86.8792 95.7176 86.8854 95.7021 86.8791C95.6865 86.8727 95.714 86.891 95.7021 86.8791C95.6902 86.8671 95.7085 86.8947 95.7021 86.8791C95.6956 86.8634 95.7021 86.896 95.7021 86.8791V79.0989C95.7021 79.0655 95.6787 79.1224 95.7021 79.0989C95.7254 79.0753 95.6691 79.0989 95.7021 79.0989H106.049C106.078 79.0989 106.028 79.0783 106.049 79.0989C106.069 79.1194 106.049 79.0698 106.049 79.0989V109.571C106.049 109.613 106.09 109.571 106.049 109.571H102.169C102.15 109.571 101.537 109.583 101.522 109.571C101.507 109.56 101.527 109.59 101.522 109.571L100.229 105.033Z" fill="#757575"/>
<path d="M159.074 94.6594C159.62 101.431 159.083 109.989 150.021 110.22C148.435 110.26 146.411 110.528 144.848 110.22C139.83 109.236 138.394 105.102 138.381 100.495C138.374 97.2736 138.374 93.9903 138.381 90.7693C138.382 90.7281 138.34 90.7693 138.381 90.7693H146.141C146.158 90.7693 146.129 90.7572 146.141 90.7693C146.153 90.7814 146.141 90.7522 146.141 90.7693C146.141 93.7767 146.141 96.8203 146.141 99.8462C146.141 101.723 146.651 103.275 148.728 103.088C150.272 102.948 150.57 101.166 150.668 99.8462C150.778 98.3459 150.776 96.8098 150.668 95.3078C150.504 93.056 149.437 91.2223 148.081 89.4726C146.246 87.1043 144.751 84.7022 142.908 82.3407C140.373 79.0962 139.091 76.0985 139.028 71.9671C138.989 69.4239 138.478 66.9974 139.028 64.8352C140.524 58.9617 146.306 58.5686 151.314 59.0001C156.543 59.4504 158.415 63.2341 158.427 68.077C158.434 70.7892 158.433 73.145 158.427 75.8572C158.427 75.8736 158.439 75.8456 158.427 75.8572C158.416 75.8688 158.444 75.8572 158.427 75.8572H151.314C151.297 75.8572 150.68 75.8695 150.668 75.8572C150.655 75.8449 150.668 75.8746 150.668 75.8572C150.669 73.5546 150.666 71.0465 150.668 68.7253C150.669 67.4159 151.032 66.3388 149.374 66.1319C147.559 65.9049 146.89 66.4661 146.788 68.077C146.728 69.0088 146.753 70.3844 146.788 71.3187C146.878 73.7522 147.932 75.2793 149.374 77.1539C151.426 79.8207 153.144 82.914 155.194 85.5825C157.306 88.3313 158.788 91.1184 159.074 94.6594Z" fill="#757575"/>
<path d="M169.42 110.22C165.267 110.203 162.076 107.947 161.014 103.736C160.585 102.036 160.367 101.139 160.367 99.1978C160.362 89.2124 160.363 78.7106 160.367 68.7252C160.368 63.5099 162.431 59.4171 168.127 59C172.335 58.6912 177.812 59.0062 179.767 63.5384C180.567 65.3974 180.408 67.3457 180.413 69.3736C180.419 72.3127 180.418 75.513 180.413 78.4505C180.413 78.4669 180.425 78.4389 180.413 78.4505C180.402 78.4621 180.43 78.4505 180.413 78.4505H173.3C173.286 78.4504 173.311 78.4592 173.3 78.4505C173.289 78.4418 172.657 78.4642 172.654 78.4505C172.58 78.1518 172.652 78.0152 172.654 77.8022C172.659 75.2075 172.661 72.6166 172.654 70.0219C172.647 67.839 172.02 65.4878 169.42 66.1318C168.305 66.4078 168.128 67.717 168.127 68.7252C168.125 78.9736 168.126 89.5978 168.127 99.8461C168.127 101.284 168.403 102.896 170.067 103.088C171.983 103.308 172.685 101.495 172.654 99.8461C172.581 95.9264 172.661 91.5253 172.654 87.5274C172.654 87.5107 172.642 87.5392 172.654 87.5274C172.665 87.5156 173.284 87.5274 173.3 87.5274H180.413C180.43 87.5274 180.401 87.5154 180.413 87.5274C180.425 87.5395 180.413 87.5104 180.413 87.5274C180.413 91.4144 180.418 95.9407 180.413 99.8461C180.408 105.634 177.944 110.192 171.36 110.22C170.66 110.223 170.119 110.223 169.42 110.22Z" fill="#757575"/>
<path d="M212.099 109.571C207.159 107.796 206.283 102.426 206.279 97.9011C206.27 83.5738 206.272 74.002 206.279 70.022C206.288 65.4733 207.872 61.0861 212.746 59.6484C214.612 59.0978 216.617 58.8753 218.566 59C225.792 59.4662 226.969 65.2643 226.972 71.3187C226.977 80.2817 226.976 88.9382 226.972 97.9011C226.97 103.957 225.193 109.974 217.919 110.22C215.872 110.289 214.106 110.293 212.099 109.571ZM214.039 97.9011C214.043 99.6967 214.038 102.995 216.626 103.088C218.853 103.167 219.212 100.982 219.212 99.1978C219.213 89.4142 219.223 79.8057 219.212 70.022C219.211 68.7091 218.698 66.5137 217.273 66.1319C216.389 65.895 215.997 66.2981 215.333 66.7803C214.144 67.6408 214.043 69.3927 214.039 70.6704C214.015 79.7274 214.017 88.8449 214.039 97.9011Z" fill="#757575"/>
<path d="M232.792 108.275C230.034 105.803 229.56 101.362 229.559 97.9011C229.556 88.5114 229.557 79.4108 229.559 70.0219C229.56 64.6835 231.374 59.5809 237.319 59C239.633 58.7731 242.268 58.9199 244.432 59.6483C249.282 61.2816 250.251 66.2216 250.252 70.6703C250.255 80.018 250.254 89.2017 250.252 98.5494C250.251 104.754 248.28 110.188 241.199 110.22C238.21 110.232 235.165 110.402 232.792 108.275ZM239.259 102.44C240.471 102.934 242.001 102.457 242.492 101.143C242.732 100.502 242.492 99.9413 242.492 99.1978C242.487 89.4762 242.495 79.7427 242.492 70.0219C242.492 69.0213 242.277 68.2023 241.845 67.4285C241.097 66.0914 238.952 65.68 237.966 66.7802C237.288 67.5376 237.319 68.9936 237.319 70.0219C237.314 79.7023 237.302 89.5174 237.319 99.1978C237.321 100.554 237.843 101.864 239.259 102.44Z" fill="#757575"/>
<path d="M23.2773 108.923C19.2911 108.955 14.9696 108.944 10.9909 108.923C10.9766 108.923 11.001 108.933 10.9909 108.923C10.9808 108.913 10.9909 108.937 10.9909 108.923V59C10.9909 58.985 10.9803 59.0106 10.9909 59C11.0015 58.9894 10.976 59 10.9909 59C15.1238 58.9782 19.1293 58.964 23.2773 59C24.0328 59.0067 25.0366 59.3999 25.8639 59.6483C30.2595 60.9723 31.0358 64.6695 31.0371 68.7253C31.0421 79.1066 31.0404 89.464 31.0371 99.8462C31.0371 100.263 31.1322 101.015 31.0371 101.791C30.483 106.301 27.9181 108.887 23.2773 108.923ZM23.2773 69.3736C23.2748 67.7034 22.8685 66.1369 20.6907 66.1319C19.6049 66.1294 19.1535 66.1344 18.7507 66.1319C18.7007 66.1319 18.7507 66.0817 18.7507 66.1319V101.791C18.7507 101.841 18.7015 101.79 18.7507 101.791C20.7196 101.869 22.8257 102.213 23.2773 99.8462C23.3774 99.3191 23.2773 98.439 23.2773 97.9011C23.2798 88.4082 23.2881 78.8665 23.2773 69.3736Z" fill="#757575"/>
<path d="M33.6237 108.923V59C33.6237 58.978 33.6084 59.0156 33.6237 59C33.6391 58.9845 33.602 59 33.6237 59H50.4366C50.4584 59 50.4213 58.9845 50.4366 59C50.452 59.0156 50.4366 58.978 50.4366 59V66.1319C50.4366 66.1539 50.452 66.1163 50.4366 66.1319C50.4213 66.1474 50.4584 66.1319 50.4366 66.1319H41.3835C41.3728 66.1319 41.3935 66.1277 41.3835 66.1319C41.3736 66.136 41.3911 66.1242 41.3835 66.1319C41.3759 66.1396 41.3876 66.1218 41.3835 66.1319C41.3794 66.1419 41.3835 66.121 41.3835 66.1319V79.0989C41.3835 79.1098 41.3794 79.0889 41.3835 79.0989C41.3876 79.109 41.3759 79.0912 41.3835 79.0989C41.3911 79.1066 41.3736 79.0948 41.3835 79.0989C41.3935 79.1031 41.3728 79.0989 41.3835 79.0989H48.4967C48.5184 79.0989 48.4813 79.0834 48.4967 79.0989C48.512 79.1145 48.4967 79.0769 48.4967 79.0989V86.8791C48.4967 86.9011 48.512 86.8636 48.4967 86.8791C48.4813 86.8947 48.5184 86.8791 48.4967 86.8791H41.3835C41.3728 86.8791 41.3935 86.875 41.3835 86.8791C41.3736 86.8833 41.3911 86.8714 41.3835 86.8791C41.3759 86.8868 41.3876 86.8691 41.3835 86.8791C41.3794 86.8892 41.3835 86.8683 41.3835 86.8791V101.143C41.3835 101.165 41.3682 101.127 41.3835 101.143C41.3989 101.158 41.3618 101.143 41.3835 101.143H51.0833C51.105 101.143 51.0679 101.127 51.0833 101.143C51.0987 101.158 51.0833 101.121 51.0833 101.143V108.923C51.0833 108.945 51.0987 108.908 51.0833 108.923C51.0679 108.939 51.105 108.923 51.0833 108.923H33.6237C33.602 108.923 33.6391 108.939 33.6237 108.923C33.6084 108.908 33.6237 108.945 33.6237 108.923Z" fill="#757575"/>
<path d="M83.4159 59H75.6561V108.923H83.4159V59Z" fill="#757575"/>
<path d="M121.568 85.5824V59C121.568 58.9844 121.557 59.0111 121.568 59C121.579 58.989 121.552 59 121.568 59H128.681C128.706 59 128.664 58.9826 128.681 59C128.699 59.0174 128.681 58.9754 128.681 59V108.923C128.681 108.94 128.693 108.911 128.681 108.923C128.67 108.935 128.698 108.923 128.681 108.923H122.861C122.841 108.923 122.878 108.936 122.861 108.923C122.845 108.91 122.866 108.944 122.861 108.923L115.748 80.3956C115.746 80.3858 115.757 80.4013 115.748 80.3956C115.74 80.3899 115.112 80.3944 115.102 80.3956C115.092 80.3969 115.108 80.3881 115.102 80.3956C115.095 80.4032 115.102 80.3855 115.102 80.3956C115.102 80.4149 115.098 80.3797 115.102 80.3956C115.109 80.4236 115.097 80.3749 115.102 80.3956C115.106 80.4164 115.101 80.389 115.102 80.3956V108.923C115.102 108.94 115.113 108.911 115.102 108.923C115.09 108.935 115.118 108.923 115.102 108.923H108.635C108.602 108.923 108.658 108.947 108.635 108.923C108.612 108.9 108.635 108.956 108.635 108.923V59C108.635 58.9834 108.624 59.0118 108.635 59C108.647 58.9883 108.619 59 108.635 59H115.102C115.113 59 115.092 58.9925 115.102 59C115.111 59.0075 115.099 58.9882 115.102 59L121.568 85.5824C121.569 85.5872 121.566 85.5782 121.568 85.5824C121.571 85.5866 121.564 85.5795 121.568 85.5824C121.572 85.5854 121.564 85.5811 121.568 85.5824C121.573 85.5837 121.563 85.583 121.568 85.5824C121.573 85.5819 121.564 85.5848 121.568 85.5824C121.572 85.5801 121.565 85.5862 121.568 85.5824C121.571 85.5787 121.567 85.5871 121.568 85.5824C121.569 85.5778 121.569 85.5872 121.568 85.5824Z" fill="#757575"/>
<path d="M190.76 86.8792V108.923C190.76 108.935 190.765 108.912 190.76 108.923C190.755 108.934 190.769 108.915 190.76 108.923C190.751 108.932 190.771 108.919 190.76 108.923C190.749 108.928 190.772 108.923 190.76 108.923H183C182.975 108.923 183.018 108.94 183 108.923C182.983 108.906 183 108.947 183 108.923V59C183 58.9757 182.983 59.0172 183 59C183.018 58.9829 182.975 59 183 59H190.76C190.785 59 190.743 58.9829 190.76 59C190.777 59.0172 190.76 58.9757 190.76 59V79.0989C190.76 79.1232 190.743 79.0818 190.76 79.0989C190.777 79.1161 190.735 79.0989 190.76 79.0989H195.933C195.958 79.0989 195.916 79.1161 195.933 79.0989C195.951 79.0818 195.933 79.1232 195.933 79.0989V59C195.933 58.9757 195.916 59.0172 195.933 59C195.951 58.9829 195.908 59 195.933 59H203.693C203.718 59 203.676 58.9829 203.693 59C203.71 59.0172 203.693 58.9757 203.693 59V108.923C203.693 108.947 203.71 108.906 203.693 108.923C203.676 108.94 203.718 108.923 203.693 108.923H195.933C195.908 108.923 195.951 108.94 195.933 108.923C195.916 108.906 195.933 108.947 195.933 108.923V86.8792C195.933 86.8549 195.951 86.8963 195.933 86.8792C195.916 86.862 195.958 86.8792 195.933 86.8792H190.76C190.735 86.8792 190.777 86.862 190.76 86.8792C190.743 86.8963 190.76 86.8549 190.76 86.8792Z" fill="#757575"/>
<path d="M260.598 101.143H269.651C269.675 101.143 269.635 101.126 269.651 101.143C269.668 101.16 269.651 101.119 269.651 101.143V108.923C269.651 108.947 269.668 108.906 269.651 108.923C269.635 108.94 269.675 108.923 269.651 108.923H252.838C252.815 108.923 252.855 108.94 252.838 108.923C252.822 108.906 252.838 108.947 252.838 108.923V58.9999C252.838 58.9763 252.822 59.0167 252.838 58.9999C252.855 58.9832 252.815 58.9999 252.838 58.9999H260.598C260.622 58.9999 260.582 58.9832 260.598 58.9999C260.615 59.0167 260.598 58.9763 260.598 58.9999V101.143C260.598 101.166 260.582 101.126 260.598 101.143C260.615 101.16 260.575 101.143 260.598 101.143Z" fill="#757575"/>
</svg>
